<svg width="558" height="408" viewBox="0 0 558 408" fill="none" xmlns="http://www.w3.org/2000/svg">
<g clip-path="url(#clip0_461_1886)">
<path d="M51.2608 140.45C42.2076 131.491 46.5152 115.004 52.502 105.452C60.4357 92.8154 78.0554 85.337 77.958 68.8498C74.4536 72.9716 69.5133 76.6244 66.1791 80.7709C64.0862 83.3625 58.7565 94.1976 58.0264 94.5431C55.3737 95.8265 57.272 89.286 57.5397 88.5456C60.9711 79.0186 70.5841 74.1316 76.0598 66.0115C81.5355 57.8913 82.2413 49.9933 86.7192 41.9472C98.4981 20.9187 131.766 -2.75072 156.419 0.260403C162.309 0.976162 170.121 5.73966 173.844 6.01116C175.961 6.15925 178.809 4.70305 181.121 4.62901C202.853 3.78984 221.374 14.23 228.358 35.6288C230.524 42.268 230.962 49.475 233.615 55.9909C238.409 67.8379 248.825 72.2065 247.608 87.657C247.146 93.6052 243.179 100.072 244.055 105.971C245.126 113.128 255.274 121.298 258.024 129.467C259.241 133.095 261.042 145.016 257.586 147.361C254.423 149.533 256.71 139.093 256.71 138.229C256.613 128.431 247.9 119.224 242.206 112.017C244.42 124.087 252.865 132.997 253.863 145.634C255.055 160.911 244.883 177.003 228.626 175.35L229.989 168.019C225.073 176.411 217.139 181.866 207.331 182.705C205.092 182.902 201.856 181.668 200.614 182.211C199.884 182.507 189.274 193.046 189.736 193.688C197.305 194.577 195.041 204.424 196.21 206.399C196.988 207.682 220.546 214.149 224.586 215.704C259.728 229.353 271.677 251.072 288.518 283.034C302.001 308.58 314.047 335.063 327.286 360.756L334.076 356.19L402.389 285.898C404.287 284.17 406.964 290.414 408.692 289.155C415.214 279.875 419.571 267.189 428.867 260.5C437.142 254.528 448.142 252.109 457.56 248.283C464.058 245.642 484.622 231.895 487.981 243.248C490.828 252.849 477.224 258.699 472.065 263.462H504.189C515.506 263.462 528.623 252.133 540.548 255.046C542.178 255.441 543.517 256.724 544.977 256.971C548.895 257.662 553.033 255.638 556.245 259.291C560.358 263.956 556.707 264.77 555.539 267.806C551.548 278.246 547.289 280.665 538.406 287.132C531.543 292.142 515.14 304.31 508.253 307.025C491.558 313.615 472.795 310.998 455.419 313.096C448.823 313.886 444.686 317.909 440.403 322.623C440.403 323.907 453.253 333.138 448.385 337.161C421.445 369 372.382 462.69 330.012 469.527C304.605 473.624 283.505 451.756 268.44 434.134C269.925 444.253 269.949 454.619 271.264 464.763C273.259 480.115 277.932 495.121 278.419 510.72C278.492 512.719 278.881 519.062 277.542 520L34.0305 519.482C34.785 508.721 38.1434 498.404 39.3602 487.692C39.7496 484.311 41.0881 474.932 40.2363 472.34C39.9686 471.526 30.9641 466.047 29.0415 464.418C-1.08718 438.65 -1.01417 364.384 0.519032 327.14C2.85534 270.299 10.497 235.918 66.8119 216.321C79.4426 211.928 100.177 208.719 110.983 203.289C119.428 199.044 120.279 186.53 120.936 178.04C116.386 179.694 109.206 174.264 105.969 174.437C104.339 174.511 102.927 176.658 100.518 177.078C89.2989 179.003 79.2236 172.536 74.77 162.441C69.2942 160.121 68.3451 143.042 70.8761 138.624C71.7766 137.044 74.7213 137.242 74.77 139.488C77.7147 140.673 77.5687 151.36 74.77 152.791L76.6682 153.482C78.8828 165.305 88.1551 173.894 100.421 172.462C97.2326 168.933 91.7812 161.701 92.2436 156.641C93.2414 146.078 100.956 156.715 101.273 162.466C101.832 167.304 117.967 175.325 120.133 172.363C120.888 171.351 121.399 158.665 120.79 156.691C117.724 151.508 114.901 146.102 112.37 140.5C74.8186 142.795 73.6748 79.7343 113.538 94.4691C120.012 92.692 124.733 87.9285 127.751 80.1539L130.16 77.3649C150.578 72.5521 162.26 54.9789 166.251 35.0858C167.103 32.3708 171.289 32.05 172.238 34.839C174.355 41.0833 165.424 59.1254 161.14 64.4813C171.703 55.9909 177.178 44.2179 179.271 31.0627C185.428 24.0285 195.285 38.171 197.67 43.7736C203.389 59.2241 210.033 72.3299 226.898 77.0934C231.571 81.4127 227.166 85.0408 222.25 82.3505C224.124 109.525 220.303 135.193 210.763 159.406C218.331 163.922 213.829 172.067 209.132 177.003C221.812 175.621 229.575 163.009 229.526 150.817C228.504 147.559 226.241 136.6 232.349 138.895C237.484 140.821 236.365 164.416 235.902 169.624C250.456 163.503 251.283 145.633 245.175 132.799C239.723 123.322 236.584 117.052 238.044 105.847C243.544 89.0639 245.345 77.4389 232.106 63.7161C227.75 55.3738 224.805 46.2911 223.272 36.5173C215.727 14.4769 193.849 5.91243 172.676 11.0215C140.844 -6.40356 98.8389 22.8191 87.1573 53.7449C85.259 76.2049 74.5996 90.5447 58.8538 105.304C51.3338 113.671 49.8736 124.531 53.3051 135.243C54.1082 140.179 53.4024 141.907 51.1878 140.426L51.2608 140.45Z" fill="#00232B"/>
<path d="M51.2549 140.462C54.1996 140.783 52.9097 139.697 52.35 137.994C40.3521 102.107 74.0096 99.59 81.7729 70.9102C84.6446 60.2972 83.8172 53.4358 89.804 43.2424C102.118 22.2386 133.342 0.519035 158.287 3.94974C163.422 4.6655 169.604 8.93536 172.986 9.2809C176.856 9.70049 181.796 7.60257 185.666 7.57788C199.075 7.45448 214.748 16.1423 221.562 27.8906C227.33 37.8125 226.673 48.1047 230.908 57.8785C234.047 65.1101 241.348 71.3051 243.587 78.981C247.164 91.297 237.843 102.009 239.571 115.189C240.496 122.272 246.069 129.109 248.333 135.674C253.638 151.026 250.06 168.056 233.147 172.647C235.093 164.008 234.996 155.518 233.828 146.731C233.682 145.645 232.684 139.771 230.908 140.536C228.474 141.622 231.394 148.484 231.37 151.051C231.297 166.057 220.784 180.15 205.086 179.089C208.299 175.066 215.527 168.747 212.217 163.144C210.976 161.047 208.396 161.195 208.664 159.418C221.343 136.044 219.956 106.056 220.467 79.993C220.881 79.524 228.985 84.4356 226.795 79.524C226.259 78.3146 218.91 76.0193 216.89 74.8839C197.664 63.9995 200.998 43.9582 187.394 33.1971C178.779 26.3851 180.847 35.5419 178.56 42.5514C175.737 51.2145 168.874 61.2351 161.573 66.6157C160.112 67.7017 156.316 69.997 154.393 69.4294C163.349 60.6181 169.701 48.1047 170.674 35.4678C170.674 34.678 168.752 34.8508 168.411 35.0235C167.608 35.3691 165.053 46.6238 164.128 49.0179C160.039 59.6555 150.889 70.6881 140.716 75.7478C138.015 77.0806 132.588 78.0185 131.249 79.0057C127.988 81.3751 125.554 91.1489 118.838 94.8758C111.391 98.9976 109.346 93.9379 103.238 93.7405C81.4809 92.9753 78.6822 129.38 101.924 137.352C105.063 138.438 112.851 138.586 113.703 139.179C114.214 139.524 118.059 148.632 118.935 150.384C119.738 152.038 121.782 154.012 122.22 155.32C124.021 160.701 122.026 168.92 121.807 174.547C113.24 175.781 103.238 170.82 99.3439 162.922C98.4435 161.071 97.0563 154.605 96.0098 154.383C91.9456 153.469 95.2797 161.935 96.0098 163.564C98.0785 168.081 101.121 170.45 104.601 173.659C94.7687 176.645 84.596 172.943 78.8769 164.428C77.514 162.379 74.7397 155.123 74.7397 153.025V139.722H72.0383C70.8215 147.472 71.5516 155.444 74.7397 162.675C70.6754 162.182 75.0804 166.945 73.4498 169.142C71.8193 171.339 69.556 169.364 68.4121 169.093C57.412 161.343 55.9031 153.494 55.4407 140.907C55.4407 140.857 55.4894 141.4 55.173 141.746C54.8567 142.091 54.3943 142.313 53.9319 142.486C52.7881 142.165 52.0336 141.474 51.2062 140.66L51.2549 140.462Z" fill="#48352B"/>
<path d="M68.4666 168.924C57.3935 166.407 53.5483 152.487 53.9863 142.318C54.254 136.123 56.201 128.941 59.8758 123.955L62.1391 125.337C53.8647 140.936 54.7408 153.647 67.1038 166.16C67.5175 166.58 70.2675 168.53 68.4666 168.924Z" fill="#00232B"/>
<path d="M216.877 105.577C216.561 108.217 216.025 110.71 215.271 113.03C202.446 110.686 196.386 128.974 212.691 123.396L215.052 123.939C213.786 134.33 212.691 148.251 206.388 156.914C203.297 161.159 197.627 162.788 193.417 165.774C190.545 167.798 182.733 174.906 180.64 175.746C173.728 178.559 157.107 174.98 150.195 171.821C147.25 170.488 144.379 167.749 141.775 166.589C140.509 166.021 139.268 166.49 139.073 167.527C138.927 168.267 146.447 176.881 147.688 178.041C152.799 182.78 159.297 185.371 165.308 188.629C160.903 189.863 154.089 199.81 151.266 201.019C149.392 201.809 150 199.711 149.927 198.724C149.319 191.32 147.348 175.721 138.416 173.672C126.735 171.007 132.04 188.901 131.821 195.96C131.48 206.893 127.83 218.42 128.219 229.452C126.442 231.501 100.792 215.877 98.3337 212.496C97.7496 211.706 97.1169 211.534 97.4576 210.176C105.635 208.819 115.296 207.264 119.677 199.218C123.157 192.8 128 160.567 125.712 154.446C125.031 152.644 122.743 150.423 121.745 148.374C120.748 146.325 116.197 135.712 115.588 135.342C113.568 134.108 107.557 135.342 104.467 134.701C83.9508 130.48 83.026 93.5321 106.024 97.333C111.694 98.2709 111.013 102.022 118.898 98.3449C127.392 94.3712 129.266 84.943 133.743 82.1787C136.201 80.6731 140.217 79.908 143.332 78.1309C145.766 76.7488 149.66 72.7751 151.12 72.2321C166.709 73.72 181.311 51.5068 183.463 34.8152C185.337 33.1368 192.37 43.6758 193.295 45.4775C198.552 55.5228 199.842 65.2966 209.26 73.3427C211.012 74.8483 217.194 78.0322 217.68 79.4884C219.189 83.9557 217.291 99.7764 216.926 105.503L216.877 105.577Z" fill="#F1C0B2"/>
<path d="M184.508 212.232C184.045 213.022 184.362 213.959 184.289 214.799C188.548 216.28 190.495 210.159 193.074 209.418C198.039 208.036 202.931 215.317 198.696 219.784C197.796 220.722 191.225 223.561 193.342 225.807C194.997 227.559 199.183 221.117 202.371 222.573C211.74 226.794 205.267 245.675 196.068 246.934C195.581 246.514 203.077 237.678 203.198 236.247C203.32 234.741 202.054 233.581 200.57 234.519C199.548 235.161 190.714 248.81 188.377 251.524C183.169 257.596 175.503 263.248 170.733 269.443C166.547 274.873 164.114 281.883 161.656 288.226L124.056 267.148C126.952 259.497 131.04 252.043 131.795 243.701C132.549 235.358 131.284 226.917 131.795 218.896C132.184 212.701 134.155 205.839 134.545 199.644C134.764 195.843 133.109 177.653 134.496 176.641C145.253 174.988 148.441 196.757 147.2 204.21C147.029 205.173 143.598 210.183 147.662 209.295C148.976 208.999 164.041 193.153 167.107 190.463C174.895 183.675 184.581 175.753 193.074 170.002C197.211 167.188 210.451 157.34 209.477 168.25C199.523 180.886 186.576 190.981 175.284 202.409C178.521 206.975 185.165 195.967 187.477 195.769C191.273 195.448 194.851 201.718 192.928 205.617C192.247 206.999 185.043 211.319 184.532 212.207L184.508 212.232Z" fill="#F1C0B2"/>
<path d="M484.662 242.475C489.188 249.731 471.666 260.072 466.434 261.825C464.389 262.516 456.723 262.17 458.987 265.305C460.203 266.983 478.87 266.144 482.569 266.169C495.978 266.292 504.837 266.786 518.295 263.009C525.523 260.986 531.85 256.419 540.003 257.95L516.494 267.575C513.233 269.155 494.372 269.871 493.861 272.166L495.175 274.313C502.452 272.339 510.093 272.216 517.394 270.315C525.718 268.168 545.528 257.234 552.463 260.443C555.53 261.874 555.286 265.453 551.758 264.91C549.397 264.54 548.424 263.478 545.43 263.799C536.961 264.712 528.76 272.191 521.921 274.93C516.056 277.275 504.447 276.14 499.02 279.225C497.852 279.891 497.171 280.237 497.487 281.792L517.394 279.052C514.936 282.73 509.655 286.753 505.202 287.321C503.961 287.469 497 287.493 496.684 287.197C496.076 286.654 493.058 274.536 491.598 271.697C491.062 270.636 490.527 268.612 488.896 268.933C485.733 269.575 490.551 277.645 491.16 279.472C492.109 282.335 493.301 290.504 496.149 290.998C497.657 291.27 507.976 289.789 509.753 289.172C516.372 286.852 530.439 267.699 537.35 272.117C538.884 273.104 537.959 273.919 537.521 275.079C535.963 279.077 520.363 295.613 516.445 298.674C501.186 310.62 478.091 307.683 459.96 309.312C452.051 310.027 443.046 312.397 439.566 320.295H438.252L411.482 293.269L410.605 291.393C417.687 283.051 421.849 269.624 430.61 263.009C438.033 257.382 450.615 254.568 459.473 250.99C463.319 249.435 482.228 238.476 484.71 242.425L484.662 242.475Z" fill="#F1C0B2"/>
<path d="M264.844 401.124C264.308 408.652 264.576 418.253 264.844 425.904C264.844 426.645 264.649 427.756 264.162 427.805C224.445 432.149 183.608 433.432 142.382 431.63L138.147 430.495L131.041 429.977C130.554 432.198 124.713 432.42 124.592 429.582C127.877 421.659 131.528 413.736 134.545 405.715L138.78 404.604C178.157 405.616 217.071 403.296 256.326 400.359C259.197 400.137 262.069 400.606 264.892 401.149L264.844 401.124Z" fill="#F1BC4B"/>
<path d="M271.204 361.653C230.44 366.515 189.603 368.194 149.229 368.07L148.109 366.244C150.957 358.074 153.488 349.683 156.262 341.464L160.643 340.23C197.488 339.983 233.433 337.021 268.478 331.369C271.593 343.636 272.153 349.263 271.204 361.653Z" fill="#F1BC4B"/>
<path d="M265.766 393.79L265.084 395.69C224.077 399.22 182.072 402.798 139.848 398.923L137.269 397.467C140.165 389.594 142.647 381.523 145.421 373.6C147.417 372.564 149.51 371.922 151.724 371.651C191.831 373.428 231.086 371.28 269.489 365.209L271.193 366.245C270.098 375.55 267.056 384.608 265.766 393.79Z" fill="#F1BC4B"/>
<path d="M283.85 281.8C284.044 282.491 284.239 283.577 283.777 283.823C281.075 285.206 260.827 294.14 259.513 294.017C258.71 293.943 258.101 293.424 257.59 292.832C256.13 288.76 254.11 285.897 253.307 281.133C252.699 277.579 254.694 271.014 250.362 270.816C249.462 279.43 251.093 285.872 253.989 293.77C253.137 294.362 252.285 294.955 251.36 295.399C250.435 295.843 249.559 296.287 248.659 296.436C222.911 300.434 197.552 303.1 171.682 303.124L169.808 302.014C170.368 299.916 172.072 296.362 171.22 294.683C170.076 292.462 164.454 291.351 164.308 290.438C163.968 288.291 168.494 279.603 169.808 277.233C171.244 276.271 173.045 276.049 175.187 276.518C206.727 274.395 234.86 269.558 265.962 263.56C268.566 263.066 271.243 263.239 273.872 263.486C277.522 269.533 280.491 275.654 283.825 281.849L283.85 281.8Z" fill="#F1BC4B"/>
<path d="M36.7921 234.992L40.7833 234.572C68.4783 239.188 96.3924 242.816 124.404 244.692L128.2 246C127.933 248.221 122.652 264.659 121.824 265.251C120.461 266.263 117.249 263.227 116.081 263.499C115.326 263.672 111.87 269.447 111.019 270.78L109.12 272.384C78.6753 268.534 48.206 264.683 17.7609 260.809L16.8848 258.859C22.4335 247.135 26.8141 242.421 36.7921 234.992Z" fill="#F1BC4B"/>
<path d="M266.677 324.949C264.657 326.331 262.491 327.417 260.13 328.058C241.391 333.118 213.769 334.031 193.959 334.673C184.638 334.969 175.293 335.167 165.948 335.093C164.804 335.093 163.636 334.772 162.467 334.476C161.299 334.179 160.131 333.71 158.987 333.217C161.762 324.924 165.412 316.705 168.041 308.437L169.598 307.055C196.855 308.881 227.324 304.043 254.63 299.576L256.747 300.193C259.984 308.536 263.951 316.384 266.701 324.973L266.677 324.949Z" fill="#F1BC4B"/>
<path d="M106.483 278.135C102.005 285.465 97.3322 292.968 92.903 300.175C90.9804 302.544 84.6529 302.322 83.8498 299.262C84.1661 297.732 86.2834 289.784 85.6507 289.167C82.4626 286.033 81.4404 296.818 81.1241 298.349C80.4913 299.484 79.5665 300.101 78.3984 300.175C77.8873 297.46 73.8474 278.85 72.947 278.159C72.0465 277.468 70.416 278.702 70.3916 280.257C70.3429 283.268 73.9691 293.955 74.7479 298.349L71.9978 299.163C52.1392 296.596 32.2319 295.584 12.2272 296.127L6.89746 294.671C8.55235 283.91 10.3776 276.358 14.1498 266.213L15.4639 264.535C45.5196 268.41 75.551 272.31 105.607 276.185L106.458 278.135H106.483Z" fill="#F1BC4B"/>
<path d="M270.308 257.034C269.286 257.725 268.264 258.392 267.193 258.935C266.122 259.478 265.051 259.971 263.956 260.218C237.648 265.845 209.101 270.51 182.258 271.473C181.114 271.522 179.971 271.275 178.802 271.004C177.634 270.732 176.466 270.337 175.322 269.893C177.342 267.524 191.433 251.728 192.528 251.086C193.964 250.247 195.887 250.889 197.274 250.395C201.046 249.062 204.891 245.804 207.008 242.349C220.126 239.51 233.462 236.845 247.018 234.303L251.374 235.018C259.137 241.682 264.735 248.495 270.381 257.059L270.308 257.034Z" fill="#F1BC4B"/>
<path d="M129.091 386.427C126.876 393.214 123.42 400.273 120.11 406.839C119.745 407.53 119.161 408.122 118.528 408.714C117.896 409.307 117.166 409.825 116.387 410.294C115.486 410.319 114.562 410.319 113.685 410.195C112.809 410.072 112.006 409.899 111.276 409.529C100.13 403.901 63.114 378.356 57.833 366.139L58.4658 363.498C61.7025 358.093 65.0853 352.466 68.4194 346.986L73.8221 349.208C90.517 362.511 108.283 374.136 127.095 384.132L129.042 386.452L129.091 386.427Z" fill="#F1BC4B"/>
<path d="M113.716 417.66C114.227 418.154 114.908 419.018 114.64 419.363C112.62 421.955 97.1911 439.725 95.8526 440.145L93.8083 439.701C93.0539 439.701 92.2994 439.701 91.545 439.553C82.1754 437.726 57.8388 408.528 51.56 399.47C48.883 395.595 44.9891 389.943 44.9404 385.55C47.5931 380.095 50.9272 375.134 53.9936 369.951L55.8189 370.346C71.37 388.166 90.8879 403.024 111.623 414.501L113.716 417.66Z" fill="#F1BC4B"/>
<path d="M159.886 320.349L158.304 321.608C139.881 312.13 121.458 302.628 103.011 293.126L102.841 290.978C105.007 287.474 114.571 269.629 116.421 268.444C118.27 267.259 124.208 271.036 126.399 272.146C137.715 277.872 152.268 286.067 162.855 293.002C164.096 293.817 167.041 295.421 167.6 296.507C168.817 298.827 161.127 316.548 159.861 320.349H159.886Z" fill="#F1BC4B"/>
<path d="M75.6943 306.582C76.5217 312.184 77.9576 317.836 78.3957 323.538C78.6877 325.117 76.9355 326.031 76.6191 326.771L71.7518 327.956C50.0192 326.006 28.3353 326.796 6.72442 330.325L4.21775 329.535C4.07173 320.107 4.97218 312.184 6.01865 302.929C6.89477 302.386 7.77088 301.867 8.69567 301.473C9.62046 301.078 10.5209 300.707 11.4457 300.658C30.7933 299.251 51.4794 300.09 70.5349 303.743C71.4354 303.916 72.3115 304.385 73.1876 304.854C74.0637 305.323 74.8912 305.965 75.6943 306.606V306.582Z" fill="#F1BC4B"/>
<path d="M141.776 356.151C138.977 362.963 136.471 369.973 134.232 377.13L131.822 379.105C130.8 379.105 129.803 379.105 128.805 378.932C127.807 378.759 126.882 378.611 126.079 378.216C108.678 369.454 90.2313 358.027 75.2156 345.538C74.5098 344.946 73.9744 344.131 73.439 343.292C72.9036 342.453 72.4656 341.515 72.0762 340.552C75.8483 334.357 80.0342 328.36 83.8307 322.189L86.4834 322.658C103.714 334.086 121.65 344.625 140.024 354.053L141.752 356.151H141.776Z" fill="#F1BC4B"/>
<path d="M381.61 405.714C382.267 407.318 381.44 408.552 379.079 409.441L362.092 427.162L359.877 426.841C358.223 427.656 357.882 426.767 358.077 425.015C356.811 424.842 355.57 424.497 354.596 423.633C348.731 418.548 339.216 402.9 335.249 395.57C332.547 390.584 324.492 374.591 325.636 370.049C325.806 369.383 326.098 368.741 326.415 368.1C330.43 363.904 334.251 360.967 338.169 357.092L340.968 358.178C351.627 374.295 365.012 388.931 379.639 401.716L381.634 405.739L381.61 405.714Z" fill="#F1BC4B"/>
<path d="M402.416 378.185L402.027 381.245C397.184 386.453 392.56 391.932 388.885 398.078L386.111 399.287L382.266 398.35C367.615 384.725 353.232 369.102 342.67 352.467C348.146 346.988 353.524 341.459 358.951 335.955L360.776 336.35C372.823 350.172 386.5 363.277 400.956 374.779L402.368 378.16L402.416 378.185Z" fill="#F1BC4B"/>
<path d="M150.821 324.96C151.429 325.38 152.281 325.997 152.184 326.565C151.551 329.921 146.44 344.212 144.834 347.297L142.692 347.914C141.719 347.963 140.721 347.963 139.772 347.84C131.863 346.877 107.745 331.822 99.6897 326.466C94.3843 323.85 90.3201 320.296 87.4971 315.779C91.3179 309.609 95.4795 303.562 99.2516 297.416L102.245 297.786C116.774 305.906 131.522 313.656 146.489 321.036L150.845 324.96H150.821Z" fill="#F1BC4B"/>
<path d="M422.326 350.649C418.944 358.251 412.64 366.124 406.946 371.752C405.924 371.53 404.901 371.283 403.928 370.913C402.954 370.542 402.03 370.172 401.275 369.58C387.793 358.695 372.947 345.195 363.505 331.373C368.883 325.869 374.481 320.39 379.786 314.861C381.782 315.602 383.826 316.441 385.481 317.823C396.432 327.177 407.359 336.309 418.457 345.491C420.136 346.873 421.256 348.798 422.326 350.649Z" fill="#F1BC4B"/>
<path d="M4.19128 333.21C5.35943 333.408 6.01652 334.173 6.18688 335.506C26.4593 330.372 47.6321 330.495 68.3425 332.026C68.9753 332.075 69.5837 332.396 70.2164 332.766C70.8492 333.136 71.4819 333.605 72.066 334.124C68.5616 340.121 64.9354 345.724 61.2119 351.573L57.3424 353.721C40.7692 355.127 24.2203 357.793 8.59619 363.717L4.19128 363.494C3.89924 355.053 3.19348 346.81 3.26649 338.245C3.26649 336.691 2.68241 334.173 4.19128 333.21Z" fill="#F1BC4B"/>
<path d="M437.703 324.95C439.869 329.565 431.74 339.29 428.212 343.066L425.924 343.313C425.291 345.238 424.123 345.016 422.687 343.93C409.399 333.909 394.7 322.827 385.185 309.351C387.667 306.784 401.149 289.705 403.607 290.149C415.021 301.675 426.824 312.881 437.679 324.95H437.703Z" fill="#F1BC4B"/>
<path d="M87.4826 445.169C85.7061 449.093 78.3564 451.956 74.0488 453.363C69.3032 454.918 61.9292 457.065 57.6216 455.263C55.8207 456.769 55.2123 456.152 55.8207 453.437C54.7986 453.388 53.6791 453.264 52.8517 452.573C46.0131 446.822 33.7231 418.192 35.086 409.233C35.2563 408.147 36.0594 407.307 36.8139 406.616C36.8139 403.161 40.1723 397.706 41.3405 394.695L44.8449 396.793C56.0641 413.725 69.7656 429.002 85.6574 441.516L87.4826 445.193V445.169Z" fill="#F1BC4B"/>
<path d="M352.652 430.483C353.431 430.754 353.431 431.05 352.652 431.396L351.654 434.283C343.964 439.121 333.864 442.478 326.417 443.317C323.765 443.983 323.156 442.922 324.616 440.553C323.935 440.059 323.278 439.541 322.694 438.924C315.636 431.371 311.913 396.003 313.738 384.551C315.855 380.799 317.559 378.701 320.066 375.369L323.132 378.652C329.581 396.077 339.413 411.996 351.314 426.114L352.652 430.433V430.483Z" fill="#F1BC4B"/>
<path d="M128.187 242.346C126.337 242.001 125.559 240.421 127.286 239.952C103.558 239.779 74.5978 237.361 51.478 231.634C50.6263 231.412 49.8232 230.943 49.02 230.425C48.2169 229.907 47.4625 229.265 46.7324 228.574C61.2614 220.947 77.2992 216.209 93.1666 212.186C101.49 220.404 110.932 225.464 121.227 230.573C126.873 233.362 127.214 230.203 128.674 237.731C128.941 239.138 129.866 241.458 128.187 242.346Z" fill="#F1BC4B"/>
<path d="M41.3211 386.429C39.9339 389.366 37.914 392.698 36.7945 395.611C26.1838 413.11 35.237 435.447 46.7482 450.354V453.439C43.6575 456.722 34.6772 452.353 30.8321 450.28C24.9183 447.071 18.8585 443.641 15.0863 437.841C11.7522 429.523 9.41586 421.008 7.83398 412.147C10.292 405.212 33.8011 383.961 39.7393 385.714C40.299 385.886 40.8101 386.158 41.3211 386.454V386.429Z" fill="#F1BC4B"/>
<path d="M265.78 393.783C265.464 396.054 265.026 398.917 264.88 401.138C221.756 406.889 177.95 406.84 134.558 405.729C135.555 403.063 136.286 400.176 137.283 397.461C160.476 399.559 184.107 397.782 207.47 398.423L265.805 393.808L265.78 393.783Z" fill="#FAF9F7"/>
<path d="M148.114 366.254L208.348 365.365C228.182 364.946 248.479 360.972 268.045 359.787C269.749 359.688 271.744 359.022 271.209 361.663C271.087 363.169 271.379 364.773 271.209 366.254C268.386 368.426 263.543 368.574 259.892 368.993C240.058 371.289 219.177 372.967 199.294 373.633C181.383 374.226 163.325 373.115 145.413 373.584C146.289 371.116 147.263 368.697 148.139 366.229L148.114 366.254Z" fill="#FAF9F7"/>
<path d="M313.736 340.552C314.052 341.194 314.393 342.23 314.028 342.477C304.317 348.45 287.014 357.706 276.598 361.901L274.821 360.766C275.43 350.449 274.505 342.23 272.096 332.308L274.262 329.791C283.729 326.039 292.952 321.967 301.957 317.623C305.826 325.274 309.842 332.901 313.711 340.577L313.736 340.552Z" fill="#F1BC4B"/>
<path d="M55.7909 359.835C54.5497 361.711 54.1603 365.142 51.751 367.19C48.8063 369.708 40.5319 371.954 35.9809 375.064C33.6933 376.618 26.3923 381.283 28.6556 384.615L28.2906 387.059C21.5737 391.032 15.4895 395.919 10.0625 401.744L6.94737 402.04C5.56018 391.674 4.75708 382.246 4.22168 371.756C4.68407 371.04 5.1708 370.374 5.75488 369.782C10.4032 365.068 47.2974 356.676 53.5763 358.774C54.355 359.045 55.0851 359.416 55.8152 359.835H55.7909Z" fill="#F1BC4B"/>
<path d="M268.46 331.372C269.044 333.741 266.538 333.543 265.053 333.84C253.274 336.135 238.429 337.591 226.382 338.702C203.116 340.824 179.607 341.491 156.244 341.466C157.169 338.727 158.045 335.938 158.97 333.198C195.012 333.568 231.298 331.964 266.659 324.93C267.389 327.25 267.876 329.002 268.46 331.347V331.372Z" fill="#FAF9F7"/>
<path d="M312.806 379.101C311.248 382.68 300.491 402.474 302.852 404.794C305.213 407.114 306.697 401.166 307.379 399.29L309.472 403.066C310.542 414.716 313.341 426.119 316.919 437.201L316.432 441.495C310.591 439.077 305.31 439.002 299.299 434.56C292.631 429.648 289.37 421.701 283.87 415.802L283.407 412.742C290.514 400.401 299.372 389.319 309.958 379.52L312.83 379.076L312.806 379.101Z" fill="#F1BC4B"/>
<path d="M287.485 289.154C291.501 296.781 295.346 304.408 299.24 312.108C299.507 312.75 299.824 313.589 299.459 314.033C298.485 315.218 275.366 325.757 272.031 327.09L270.304 325.88C267.626 317.044 263.66 308.751 260.35 300.187C260.155 299.496 259.985 298.41 260.447 298.163C265.339 295.547 280.452 289.204 285.611 287.945L287.509 289.154H287.485Z" fill="#F1BC4B"/>
<path d="M270.306 257.019C271.742 259.191 272.667 261.363 273.932 263.436C242.757 271.507 210.609 275.999 178.436 278.121C175.953 278.294 171.913 278.812 169.845 277.208C172.084 273.21 172.619 272.988 175.272 269.853C207.372 269.014 238.961 263.485 270.306 256.994V257.019Z" fill="#FAF9F7"/>
<path d="M111.018 270.806C109.509 273.151 107.952 275.767 106.491 278.161L14.1826 266.24C15.1317 263.673 15.6428 261.55 16.9083 258.885L111.042 270.806H111.018Z" fill="#FAF9F7"/>
<path d="M93.8143 439.665C99.6308 440.454 105.642 444.477 108.295 449.759C106.591 451.981 105.764 453.141 103.768 455.263C98.2923 455.263 89.5554 450.376 87.4868 445.168C69.8428 432.161 53.0019 413.354 41.3203 394.695C42.5858 391.437 43.3402 388.821 44.9465 385.514C48.7916 390.475 51.42 396.25 55.0461 401.433C65.3405 416.069 79.5044 429.224 93.8143 439.689V439.665Z" fill="#FAF9F7"/>
<path d="M253.99 293.736C254.769 295.834 255.84 297.956 256.716 300.153C254.72 302.349 250.753 302.325 247.979 302.744C226.027 306.15 203.394 308.347 181.199 309.359C177.257 309.532 171.684 309.927 168.033 308.396C168.617 306.545 169.323 303.904 169.834 301.979C171.343 300.943 173.047 301.066 174.774 301.017C188.087 300.622 201.35 300.449 214.638 299.215C227.926 297.981 240.97 295.661 254.014 293.711L253.99 293.736Z" fill="#FAF9F7"/>
<path d="M46.7457 228.572C73.2725 235.483 100.943 236.643 128.152 238.716C128.371 239.901 128.152 241.135 128.2 242.344C128.273 243.455 128.322 244.936 128.2 246.022C97.4631 245.38 66.8477 241.333 36.792 235.014C40.8562 232.003 42.2191 230.966 46.7457 228.597V228.572Z" fill="#FAF9F7"/>
<path d="M116.443 410.311C119.072 408.436 127.127 412.335 126.397 415.815C125.472 418.037 124.669 420.036 123.671 422.233C121.189 423.664 113.644 420.801 113.717 417.642C93.7371 407.374 71.2988 390.418 56.2344 373.61C55.2123 372.475 53.9711 371.735 53.9955 369.933C55.4313 367.489 57.4026 365.367 58.5221 363.516C62.2699 371.043 69.8629 377.337 76.1904 382.767C88.4318 393.257 102.328 402.611 116.443 410.336V410.311Z" fill="#FAF9F7"/>
<path d="M131.817 379.101C135.005 378.706 137.463 379.965 139.069 382.779C138.29 384.951 137.074 387.222 136.343 389.196C134.299 392.182 129.213 389.862 129.091 386.432C107.432 375.843 86.6481 362.96 68.4443 346.966C69.6368 345.016 70.7806 342.672 72.0705 340.549C90.4446 356.148 110.425 368.266 131.792 379.101H131.817Z" fill="#FAF9F7"/>
<path d="M386.128 399.288C388.926 397.486 396.349 404.348 394.28 407.556C393.112 409.136 391.847 410.592 390.654 412.147C388.269 414.911 380.554 408.815 381.601 405.73C369.481 395.857 357.897 383.591 348.138 371.275C344.682 366.906 340.983 361.871 338.16 357.083C339.669 355.602 341.178 353.998 342.687 352.492C344.731 352.344 345.023 353.924 345.997 355.108C359.674 372.064 369.384 384.948 386.152 399.288H386.128Z" fill="#FAF9F7"/>
<path d="M76.6006 326.77C75.2134 329.806 73.5585 331.583 72.0739 334.125C49.733 332.545 26.3942 331.706 4.66161 337.802C3.78549 337.802 4.24788 334.248 4.19921 333.212C4.15053 332.002 4.19921 330.768 4.19921 329.534C27.9517 325.116 52.6047 323.068 76.6006 326.77Z" fill="#FAF9F7"/>
<path d="M142.669 347.904C145.249 345.337 150.652 348.669 148.997 352.494C148.364 354.321 147.829 356.172 147.196 357.998C145.663 360.368 141.501 359.01 141.769 356.172C121.764 347.385 101.321 335.366 83.8477 322.21C85.0888 320.211 86.1353 317.916 87.4738 315.793C104.655 328.652 123.468 338.623 142.669 347.928V347.904Z" fill="#FAF9F7"/>
<path d="M406.95 371.751C410.309 370.813 415.346 374.589 415.103 378.168C413.837 379.945 412.767 381.895 411.477 383.672C409.214 386.115 401.547 381.278 402.424 378.168C388.649 367.802 372.782 352.524 361.222 339.64C360.2 338.505 358.958 337.764 358.983 335.963C360.492 334.432 362.001 332.902 363.509 331.372C365.554 331.298 365.919 332.655 366.965 333.84C379.085 347.686 392.446 360.521 406.95 371.775V371.751Z" fill="#FAF9F7"/>
<path d="M74.8016 298.319C75.3126 301.157 75.3126 303.971 75.702 306.587C52.9716 301.873 29.0974 300.762 6.02637 302.909C6.34274 300.17 6.51311 297.381 6.92683 294.641C29.6085 292.691 52.3876 294.863 74.8016 298.319Z" fill="#FAF9F7"/>
<path d="M358.081 424.976C360.855 428.16 355.672 432.948 352.654 430.48C338.539 414.461 326.906 395.827 320.067 375.416C322.574 372.084 323.548 371.047 326.395 368.061C331.214 389.286 344.428 408.563 358.081 424.976Z" fill="#FAF9F7"/>
<path d="M425.95 343.302C428.919 341.722 436.877 347.942 434.102 351.57C432.934 353.249 431.45 354.779 430.476 356.161C427.361 357.716 422.275 354.112 422.324 350.657C407.381 339.649 392.998 327.95 379.783 314.869C381.584 312.993 383.434 311.216 385.21 309.365C397.403 321.114 410.277 332.097 423.711 342.414C424.514 343.031 425.633 343.08 425.95 343.327V343.302Z" fill="#FAF9F7"/>
<path d="M159.873 320.361C159.241 322.311 158.827 324.557 158.072 326.778C157.172 329.962 150.187 328.062 150.82 324.952C132.908 317.325 115.921 307.379 99.2266 297.407C100.492 295.359 101.539 293.088 102.853 290.99L159.873 320.361Z" fill="#FAF9F7"/>
<path d="M244.032 229.483C244.13 230.199 244.154 231.285 243.716 231.383C237.851 232.741 215.753 236.986 211.008 236.616L209.669 234.962C210.667 230.026 209.864 226.052 206.554 222.078C205.605 220.918 202.904 219.981 202.733 218.969C202.514 217.661 204.072 214.008 203.342 212.033C217.944 216.155 231.353 220.943 244.057 229.483H244.032Z" fill="#F1BC4B"/>
<path d="M381.602 405.705C384.376 407.951 387.224 410.962 390.655 412.122C383.598 421.402 377.854 429.202 369.847 437.816C365.954 439.05 359.139 430.559 359.894 426.808L377.976 407.976L381.602 405.705Z" fill="#EAA238"/>
<path d="M61.2092 351.559C59.4083 354.372 57.6074 357.038 55.7821 359.827C37.9191 361.086 20.6401 364.64 4.18857 371.748C4.04255 369.008 4.28592 366.219 4.18857 363.48C22.295 355.878 41.7399 353.015 61.2092 351.559Z" fill="#FAF9F7"/>
<path d="M36.7908 395.615C36.231 397.071 31.0717 410.794 36.7908 406.623C36.8638 423.431 45.4789 440.461 55.7976 453.444C58.718 459.416 50.5896 457.17 47.6449 454.357C47.4502 454.11 47.0608 453.863 46.7444 453.444C42.3639 447.446 38.0076 441.498 35.1115 434.488C30.2199 422.666 26.6424 405.389 36.7908 395.615Z" fill="#FAF9F7"/>
<path d="M324.585 440.611C326.654 444.857 319.353 445.794 317.333 442.438C317.162 441.994 316.87 441.697 316.432 441.525C311.833 427.876 308.182 413.807 307.379 399.295C309.545 393.347 310.543 390.261 313.706 384.609C315.215 385.572 314.607 388.089 314.631 389.644C314.85 407.193 318.16 424.272 324.561 440.587L324.585 440.611Z" fill="#FAF9F7"/>
<path d="M292.893 389.192C288.877 396.053 284.472 402.791 279.727 409.357L269 413.533C265.082 395.294 272.134 389.118 273.886 369.916L275.419 366.954L314.601 344.963L316.426 346.049C317.595 348.344 325.674 362.067 325.48 363.005C312.435 367.818 297.858 375.173 292.893 389.192Z" fill="#F1BC4B"/>
<path d="M292.898 389.205C293.044 389.205 293.555 390.143 294.285 390.143C295.721 390.143 300.662 381.702 302.828 379.555C304.555 377.827 308.401 374.964 310.518 373.582C311.443 372.989 320.569 367.708 320.034 369.46C317.722 372.792 315.531 376.099 312.806 379.11C300.394 392.759 292.752 398.288 283.845 415.836C282.604 418.28 281.655 420.847 280.219 423.191C279.075 418.675 278.467 413.961 277.493 409.419L291.195 389.329C291.584 389.032 292.338 389.205 292.898 389.23V389.205Z" fill="#FAF9F7"/>
<path d="M28.6291 384.61C32.6203 381.796 36.6115 378.094 41.0164 375.601C42.2819 374.91 47.4656 371.825 48.5365 372.688C45.7377 377.032 43.4744 381.771 41.3085 386.436C28.8725 390.607 19.7219 400.035 11.2771 409.686C10.2307 410.87 9.86561 412.228 7.82134 412.154C7.23726 408.797 7.33462 405.218 6.9209 402.059C11.4475 398.234 15.3657 393.791 20.087 390.163C22.9587 387.942 26.0251 386.461 28.6535 384.61H28.6291Z" fill="#FAF9F7"/>
<path d="M313.73 340.549C314.654 342.375 315.531 344.226 316.455 346.053L273.915 369.92C274.207 366.859 274.645 363.774 274.816 360.738L313.73 340.549Z" fill="#FAF9F7"/>
<path d="M411.479 383.69C405.76 391.637 400.138 399.708 394.273 407.556C393.105 404.619 388.87 401.633 386.12 399.288C390.136 391.686 396.463 384.405 402.401 378.186C404.957 380.111 408.485 382.505 411.455 383.69H411.479Z" fill="#EAA238"/>
<path d="M244.028 229.486C246.973 231.46 248.579 232.67 251.281 234.99C238.358 238.766 224.632 240.469 211.296 242.641C209.981 242.863 207.791 244.072 206.915 242.32C208.229 240.173 209.13 237.458 209.641 234.965L244.028 229.461V229.486Z" fill="#FAF9F7"/>
<path d="M422.331 350.644C424.935 352.569 427.612 354.618 430.484 356.148C425.325 363.454 420.287 370.883 415.103 378.188C412.572 375.844 409.676 373.869 406.95 371.771C406.731 369.155 408.824 367.378 410.212 365.453C413.278 361.257 416.442 357.036 419.581 352.89C420.409 351.804 420.384 350.224 422.331 350.669V350.644Z" fill="#EAA238"/>
<path d="M129.088 386.427C131.4 387.563 133.566 389.266 136.34 389.191C133.03 398.299 130.11 406.863 126.386 415.798C123.466 413.354 119.742 412.096 116.433 410.294C119.961 403.235 123.077 395.905 126.557 388.846C127.214 387.513 126.97 385.958 129.112 386.427H129.088Z" fill="#EAA238"/>
<path d="M299.258 312.086C300.208 313.937 301.059 315.763 301.984 317.59C302.471 319.811 300.865 319.49 299.599 320.181C291.008 324.846 281.566 329.832 272.123 332.275C271.612 330.128 270.955 327.956 270.322 325.858L299.283 312.086H299.258Z" fill="#FAF9F7"/>
<path d="M434.097 351.561C434.048 350.697 433.854 349.882 433.245 349.241C432.126 348.081 427.551 344.527 425.944 343.293C429.497 337.196 435.922 331.791 437.699 324.93C439.208 326.608 445.852 332.803 445.852 334.555C442.542 340.627 438.015 345.933 434.073 351.561H434.097Z" fill="#EAA238"/>
<path d="M287.473 289.168L260.314 300.175C259.364 297.707 258.488 295.313 257.588 292.82L283.823 281.812C285.21 284.379 286.208 286.823 287.449 289.168H287.473Z" fill="#FAF9F7"/>
<path d="M141.777 356.143C143.432 356.859 145.476 357.427 147.204 357.97C144.381 366.189 141.996 374.556 139.051 382.75C136.642 381.54 134.208 380.306 131.799 379.072C133.502 372.556 136.082 365.201 138.759 359.056C139.465 357.451 139.343 355.995 141.752 356.119L141.777 356.143Z" fill="#EAA238"/>
<path d="M215.082 123.957C208.366 129.609 196.781 125.783 202.549 116.281C206.516 109.74 215.472 111.641 215.983 111.098C216.397 110.678 215.082 106.359 216.883 105.594C216.494 111.789 215.837 117.811 215.082 123.957Z" fill="#F1C0B2"/>
<path d="M158.05 326.781C155.154 335.37 151.917 343.91 148.996 352.474C149.435 350.228 144.811 348.92 142.669 347.883L150.822 324.93C153.036 325.868 155.592 326.904 158.074 326.756L158.05 326.781Z" fill="#EAA238"/>
<path d="M551.683 268.138C554.068 271.717 541.9 280.972 539.028 283.119C537.981 283.909 532.53 287.932 531.873 287.315C535.012 281.589 546.183 275.221 539.125 268.977C541.535 267.866 550.198 265.867 551.707 268.138H551.683Z" fill="#F1C0B2"/>
<path d="M92.9046 300.176C91.4444 302.545 89.8625 305.137 88.378 307.531C87.1855 310.023 82.6832 308.37 82.9509 305.704C83.4133 303.631 83.462 301.237 83.8514 299.287L92.9046 300.2V300.176Z" fill="#FAF9F7"/>
<path d="M88.377 307.498C88.0119 308.09 88.1093 309.793 87.3305 310.533L81.149 319.419C78.1556 313.791 81.9765 309.941 82.9499 305.646L88.377 307.473V307.498Z" fill="#F1BC4B"/>
<path d="M81.136 298.328C80.6736 300.723 80.1625 303.191 80.2355 305.684C77.0474 306.449 78.7997 302.129 78.4346 300.18C78.0209 297.736 79.0187 298.304 81.1603 298.353L81.136 298.328Z" fill="#EDE3DC"/>
<path d="M155.822 45.9316C159.692 46.6474 157.258 49.5598 156.09 51.7071C146.963 68.1695 136.62 69.9713 121.264 76.9808C119.707 77.6965 112.649 83.8175 111.919 80.3374C110.799 74.8582 130.123 69.9466 133.627 68.3917C144.043 63.7762 150.371 55.7055 155.822 45.9316Z" fill="#00232B"/>
<path d="M221.403 55.0843C221.281 55.2077 217.995 55.183 217.849 55.0349C217.484 54.6894 216.219 47.0135 215.489 45.039C212.885 37.9554 210.524 34.0558 204.148 29.934C202.663 28.9714 194.535 26.3552 196.993 23.8871C199.062 21.8138 209.697 29.7612 211.473 31.6864C214.223 34.6728 223.398 53.2332 221.427 55.0843H221.403Z" fill="#00232B"/>
<path d="M182.483 25.7132C181.656 26.5277 180.366 25.8613 179.538 24.5532C178.565 23.0476 173.649 16.2602 176.618 15.6185C178.614 15.1743 183.481 24.726 182.483 25.7132Z" fill="#00232B"/>
<path d="M141.456 109.606C156.374 109.285 160.536 128.265 144.23 125.55C132.597 123.625 127.608 109.902 141.456 109.606Z" fill="#F1C0B2"/>
<path d="M151.481 81.0266C154.425 80.533 168.784 80.3602 167.64 85.4199C166.496 90.4796 159.901 86.1603 155.788 86.2344C152.308 86.2837 143.523 91.2447 143.547 86.7527C143.547 83.9637 149.071 81.4215 151.481 81.0019V81.0266Z" fill="#48352B"/>
<path d="M185.986 121.971C187.592 119.404 181.167 104.077 180.753 99.5113C180.632 98.2773 180.51 94.5751 182.043 94.5997C183.382 94.5997 188.833 117.652 189.539 120.54C188.833 128.463 176.908 128.043 176.178 124.415C175.448 120.787 184.379 124.662 186.01 121.996L185.986 121.971Z" fill="#00232B"/>
<path d="M156.847 95.6335C163.126 94.4241 164.708 110.442 157.577 111.133C150.446 111.824 151.371 96.6701 156.847 95.6335Z" fill="#00232B"/>
<path d="M199.42 96.5317C206.307 94.5572 208.498 110.181 201.902 111.118C194.358 112.204 194.504 97.9386 199.42 96.5317Z" fill="#00232B"/>
<path d="M195.801 80.9989C200.036 80.0363 215.124 80.9989 213.202 87.6135C212.35 90.5012 206.899 86.7003 204.587 86.3794C201.155 85.9105 195.874 87.0458 193.051 86.1573C189.376 84.9973 193.538 81.5172 195.825 80.9989H195.801Z" fill="#48352B"/>
<path d="M111.898 122.103C109.854 124.127 107.786 118.475 106.934 118.451C103.721 120.08 104.378 125.633 100.144 124.843C99.8275 123.165 100.314 122.103 100.971 120.647C102.212 117.932 104.573 117.562 105.449 115.365C103.965 109.343 95.5929 110.454 95.6172 108.776C95.6172 108.257 97.7102 106.604 98.7323 106.53C105.084 106.135 113.651 120.351 111.898 122.079V122.103Z" fill="#48352B"/>
<path d="M184.322 138.638C184.93 146.018 169.574 140.76 165.607 138.786C164.39 138.194 159.012 134.417 158.987 133.578C158.987 132.64 160.837 132.097 161.956 132.369C165.071 133.183 169.525 137.626 174.125 138.391C177.483 138.959 180.939 138.44 184.322 138.613V138.638Z" fill="#00232B"/>
<path d="M433.211 285.491C429.415 281.641 445.063 276.359 448.105 276.26C452.242 276.112 480.132 282.307 480.254 285.022C479.061 286.775 478.21 286.454 476.409 286.207C466.187 284.775 453.411 275.841 442.264 280.432C440.39 281.197 434.428 286.701 433.211 285.467V285.491Z" fill="#00232B"/>
</g>
<defs>
<clipPath id="clip0_461_1886">
<rect width="558" height="408" fill="white"/>
</clipPath>
</defs>
</svg>
