<svg width="283" height="76" viewBox="0 0 283 76" fill="none" xmlns="http://www.w3.org/2000/svg">
<path d="M7.777 18.1074L4.44001 59.4094C4.45713 60.4964 5.00045 61.7153 5.93554 62.6911C6.89564 63.6927 8.01642 64.1842 8.90797 64.1844H18.9422C26.0896 64.1845 30.6684 66.0661 33.9011 67.9936C35.3998 68.8873 36.7733 69.9061 37.5921 70.4458C38.6015 71.111 38.9263 71.1641 39.0096 71.1641C39.1817 71.164 39.5757 71.0727 40.6321 70.4151C41.5097 69.8689 42.9497 68.8575 44.534 67.9653C47.9351 66.0499 52.7441 64.1844 60.2581 64.1844H70.8805C71.8391 64.1843 73.0666 63.6195 74.1383 62.522C75.196 61.4387 75.7219 60.2214 75.741 59.4015L72.8734 26.5929C72.7732 25.4047 73.6882 24.3699 74.9059 24.2735C76.1231 24.1773 77.1975 25.0537 77.2983 26.2411L80.1752 59.1802C80.1802 59.2398 80.1833 59.299 80.1833 59.3561C80.1832 61.6184 78.9374 63.8657 77.3623 65.4791C75.7795 67.1002 73.4646 68.4872 70.8805 68.4872H60.2581C53.6072 68.4872 49.5606 70.1115 46.7645 71.686C45.2492 72.5394 44.2607 73.2709 43.0315 74.036C41.9821 74.6892 40.6062 75.4669 39.0096 75.4669C37.4233 75.4669 36.0775 74.6511 35.0961 74.0043C33.924 73.2318 33.0052 72.5097 31.5762 71.6577C28.9562 70.0954 25.1723 68.4873 18.9422 68.4872H8.90797C6.45381 68.487 4.23021 67.2325 2.68357 65.6186C1.12696 63.9943 -7.79093e-05 61.7469 4.03942e-09 59.3561C7.09678e-06 59.3066 0.00124973 59.251 0.00582373 59.1927L3.34631 17.8306C3.3848 15.5702 4.5595 13.5021 6.10093 12.0367C7.67045 10.5446 9.87397 9.43369 12.2531 9.43359H18.9422C22.378 9.43362 26.0962 9.66671 29.8687 11.2741C33.0411 12.626 36.1054 14.8862 39.0842 18.5227C42.1097 15.1216 45.2044 12.9187 48.3812 11.5385C52.1971 9.88078 55.9653 9.48205 59.5406 9.43813C60.7623 9.4235 61.7717 10.371 61.7874 11.5623L61.7792 11.7836C61.6788 12.8721 60.7412 13.7268 59.5965 13.741C56.3192 13.7813 53.2337 14.1466 50.197 15.4658C47.1749 16.7787 44.0327 19.1112 40.7917 23.3385C40.3628 23.898 39.6803 24.221 38.963 24.2066C38.2453 24.1919 37.5782 23.8401 37.174 23.2636C34.0124 18.7551 30.9697 16.4428 28.0832 15.2127C25.1672 13.9703 22.1955 13.7365 18.9422 13.7365H12.2531C11.2871 13.7365 10.1464 14.2168 9.20847 15.1084C8.26797 16.0026 7.78282 17.0694 7.78282 17.9452C7.78281 17.995 7.78152 18.0497 7.777 18.1074Z" fill="#003B49"/>
<path d="M30.6087 39.9377L35.9494 44.7635C36.4572 44.8234 36.9698 44.7286 37.4228 44.4941L42.9526 38.5204L45.5956 35.6658L47.6761 33.4151L50.1749 30.7152C50.8368 29.9716 51.7676 29.4776 52.7631 29.4776C55.7097 29.4676 57.2128 33.0957 56.4215 34.9522C54.4902 39.4935 40.5734 54.8294 37.2684 55.4582C33.1223 56.2467 28.9413 50.4078 24.1929 44.6338C23.9241 44.3095 23.7449 43.8402 23.6603 43.2963C23.0431 39.4437 27.8811 37.158 30.6037 39.9427L30.6087 39.9377Z" fill="#007E86" stroke="#007E86" stroke-width="3.03835" stroke-linecap="round" stroke-linejoin="round"/>
<path d="M74.8777 1.76904C75.5536 1.76925 76.1347 2.23999 76.265 2.89322C76.9619 6.39129 79.7515 9.15656 83.1745 9.83438C83.8445 9.96705 84.3082 10.5456 84.3105 11.1935V11.2113C84.308 11.859 83.8444 12.4377 83.1745 12.5704C79.7514 13.2482 76.9608 16.0136 76.2639 19.5115C76.1335 20.1647 75.5525 20.6356 74.8767 20.6357C74.2007 20.6357 73.6187 20.1648 73.4883 19.5115C72.7913 16.0134 70.0018 13.2482 66.5788 12.5704C65.9057 12.437 65.4419 11.8534 65.4439 11.2019C65.4422 10.5507 65.906 9.96771 66.5788 9.83438C70.0019 9.15654 72.7924 6.3912 73.4894 2.89322L73.5192 2.77262C73.693 2.18262 74.244 1.76903 74.8777 1.76904Z" fill="#007E86"/>
<path d="M94.5378 68.0144V57.7698C94.5378 57.078 94.6888 56.468 94.9906 55.9397C95.3051 55.4114 95.7327 54.9964 96.2736 54.6945C96.827 54.3926 97.4622 54.2417 98.1791 54.2417C98.7325 54.2417 99.2042 54.336 99.5941 54.5247C99.984 54.7134 100.349 54.9838 100.688 55.336L99.3488 56.6755C99.1979 56.5246 99.0344 56.4051 98.8583 56.317C98.6822 56.229 98.4558 56.185 98.1791 56.185C97.676 56.185 97.2861 56.3233 97.0094 56.6C96.7452 56.8642 96.6132 57.2478 96.6132 57.7509V68.0144H94.5378ZM92.3682 60.845V58.9584H99.3488V60.845H92.3682Z" fill="#007E86"/>
<path d="M100.948 68.0144V58.9584H103.023V68.0144H100.948ZM103.023 62.977L102.306 62.6185C102.306 61.4739 102.558 60.5495 103.061 59.8451C103.576 59.1282 104.35 58.7697 105.381 58.7697C105.834 58.7697 106.243 58.8515 106.608 59.015C106.972 59.1785 107.312 59.4426 107.626 59.8074L106.268 61.2035C106.105 61.0274 105.922 60.9016 105.721 60.8262C105.52 60.7507 105.287 60.713 105.023 60.713C104.444 60.713 103.966 60.8953 103.589 61.2601C103.212 61.6249 103.023 62.1971 103.023 62.977Z" fill="#007E86"/>
<path d="M112.882 68.203C112.002 68.203 111.203 67.9955 110.486 67.5804C109.769 67.1528 109.197 66.5805 108.769 65.8636C108.354 65.1466 108.147 64.3479 108.147 63.4675C108.147 62.5871 108.354 61.7947 108.769 61.0903C109.197 60.3859 109.769 59.8262 110.486 59.4112C111.203 58.9835 112.002 58.7697 112.882 58.7697C113.775 58.7697 114.58 58.9772 115.297 59.3923C116.014 59.8074 116.58 60.3734 116.995 61.0903C117.423 61.7947 117.637 62.5871 117.637 63.4675C117.637 64.3479 117.423 65.1466 116.995 65.8636C116.58 66.5805 116.014 67.1528 115.297 67.5804C114.58 67.9955 113.775 68.203 112.882 68.203ZM112.882 66.2032C113.398 66.2032 113.851 66.09 114.241 65.8636C114.643 65.6246 114.951 65.2976 115.165 64.8825C115.392 64.4674 115.505 63.9958 115.505 63.4675C115.505 62.9392 115.392 62.4739 115.165 62.0714C114.939 61.6689 114.631 61.3544 114.241 61.128C113.851 60.8891 113.398 60.7696 112.882 60.7696C112.379 60.7696 111.926 60.8891 111.524 61.128C111.134 61.3544 110.826 61.6689 110.599 62.0714C110.386 62.4739 110.279 62.9392 110.279 63.4675C110.279 63.9958 110.386 64.4674 110.599 64.8825C110.826 65.2976 111.134 65.6246 111.524 65.8636C111.926 66.09 112.379 66.2032 112.882 66.2032Z" fill="#007E86"/>
<path d="M119.74 68.0144V58.9584H121.815V68.0144H119.74ZM125.758 68.0144V62.6185C125.758 62.0148 125.57 61.5494 125.192 61.2224C124.815 60.8828 124.35 60.713 123.796 60.713C123.419 60.713 123.079 60.7884 122.777 60.9394C122.488 61.0903 122.255 61.3104 122.079 61.5997C121.903 61.8764 121.815 62.216 121.815 62.6185L121.004 62.1657C121.004 61.4739 121.155 60.8765 121.457 60.3734C121.759 59.8703 122.167 59.4803 122.683 59.2036C123.199 58.9143 123.777 58.7697 124.419 58.7697C125.06 58.7697 125.639 58.9081 126.155 59.1848C126.67 59.4615 127.079 59.8514 127.381 60.3545C127.683 60.8576 127.834 61.4613 127.834 62.1657V68.0144H125.758ZM131.777 68.0144V62.6185C131.777 62.0148 131.588 61.5494 131.211 61.2224C130.833 60.8828 130.368 60.713 129.815 60.713C129.45 60.713 129.117 60.7884 128.815 60.9394C128.513 61.0903 128.274 61.3104 128.098 61.5997C127.922 61.8764 127.834 62.216 127.834 62.6185L126.664 62.1657C126.727 61.4739 126.928 60.8765 127.268 60.3734C127.607 59.8703 128.041 59.4803 128.569 59.2036C129.11 58.9143 129.701 58.7697 130.343 58.7697C130.997 58.7697 131.588 58.9081 132.116 59.1848C132.645 59.4615 133.066 59.8514 133.38 60.3545C133.695 60.8576 133.852 61.4613 133.852 62.1657V68.0144H131.777Z" fill="#007E86"/>
<path d="M145.163 68.0144L139.824 54.8077H142.182L146.352 65.5051H145.522L149.729 54.8077H152.049L146.672 68.0144H145.163Z" fill="#007E86"/>
<path d="M156.215 68.203C155.335 68.203 154.536 67.9955 153.819 67.5804C153.102 67.1528 152.53 66.5805 152.102 65.8636C151.687 65.1466 151.48 64.3479 151.48 63.4675C151.48 62.5871 151.687 61.7947 152.102 61.0903C152.53 60.3859 153.102 59.8262 153.819 59.4112C154.536 58.9835 155.335 58.7697 156.215 58.7697C157.108 58.7697 157.913 58.9772 158.63 59.3923C159.347 59.8074 159.913 60.3734 160.328 61.0903C160.756 61.7947 160.97 62.5871 160.97 63.4675C160.97 64.3479 160.756 65.1466 160.328 65.8636C159.913 66.5805 159.347 67.1528 158.63 67.5804C157.913 67.9955 157.108 68.203 156.215 68.203ZM156.215 66.2032C156.731 66.2032 157.184 66.09 157.574 65.8636C157.976 65.6246 158.284 65.2976 158.498 64.8825C158.724 64.4674 158.838 63.9958 158.838 63.4675C158.838 62.9392 158.724 62.4739 158.498 62.0714C158.272 61.6689 157.963 61.3544 157.574 61.128C157.184 60.8891 156.731 60.7696 156.215 60.7696C155.712 60.7696 155.259 60.8891 154.857 61.128C154.467 61.3544 154.159 61.6689 153.932 62.0714C153.718 62.4739 153.612 62.9392 153.612 63.4675C153.612 63.9958 153.718 64.4674 153.932 64.8825C154.159 65.2976 154.467 65.6246 154.857 65.8636C155.259 66.09 155.712 66.2032 156.215 66.2032Z" fill="#007E86"/>
<path d="M163.073 68.0144V54.4304H165.148V68.0144H163.073Z" fill="#007E86"/>
<path d="M167.854 68.0144V58.9584H169.929V68.0144H167.854ZM168.892 57.2981C168.539 57.2981 168.244 57.1786 168.005 56.9396C167.779 56.7007 167.665 56.4051 167.665 56.0529C167.665 55.7007 167.779 55.4051 168.005 55.1662C168.244 54.9272 168.539 54.8077 168.892 54.8077C169.256 54.8077 169.552 54.9272 169.778 55.1662C170.005 55.4051 170.118 55.7007 170.118 56.0529C170.118 56.4051 170.005 56.7007 169.778 56.9396C169.552 57.1786 169.256 57.2981 168.892 57.2981Z" fill="#007E86"/>
<path d="M174.012 68.0144V55.185H176.087V68.0144H174.012ZM171.842 60.845V58.9584H178.257V60.845H171.842Z" fill="#007E86"/>
<path d="M180.161 68.0144V58.9584H182.236V68.0144H180.161ZM181.198 57.2981C180.846 57.2981 180.551 57.1786 180.312 56.9396C180.085 56.7007 179.972 56.4051 179.972 56.0529C179.972 55.7007 180.085 55.4051 180.312 55.1662C180.551 54.9272 180.846 54.8077 181.198 54.8077C181.563 54.8077 181.859 54.9272 182.085 55.1662C182.312 55.4051 182.425 55.7007 182.425 56.0529C182.425 56.4051 182.312 56.7007 182.085 56.9396C181.859 57.1786 181.563 57.2981 181.198 57.2981Z" fill="#007E86"/>
<path d="M189.092 68.203C188.211 68.203 187.413 67.9955 186.696 67.5804C185.979 67.1528 185.407 66.5805 184.979 65.8636C184.564 65.1466 184.356 64.3479 184.356 63.4675C184.356 62.5871 184.564 61.7947 184.979 61.0903C185.407 60.3859 185.979 59.8262 186.696 59.4112C187.413 58.9835 188.211 58.7697 189.092 58.7697C189.985 58.7697 190.79 58.9772 191.507 59.3923C192.224 59.8074 192.79 60.3734 193.205 61.0903C193.632 61.7947 193.846 62.5871 193.846 63.4675C193.846 64.3479 193.632 65.1466 193.205 65.8636C192.79 66.5805 192.224 67.1528 191.507 67.5804C190.79 67.9955 189.985 68.203 189.092 68.203ZM189.092 66.2032C189.608 66.2032 190.06 66.09 190.45 65.8636C190.853 65.6246 191.161 65.2976 191.375 64.8825C191.601 64.4674 191.714 63.9958 191.714 63.4675C191.714 62.9392 191.601 62.4739 191.375 62.0714C191.148 61.6689 190.84 61.3544 190.45 61.128C190.06 60.8891 189.608 60.7696 189.092 60.7696C188.589 60.7696 188.136 60.8891 187.733 61.128C187.343 61.3544 187.035 61.6689 186.809 62.0714C186.595 62.4739 186.488 62.9392 186.488 63.4675C186.488 63.9958 186.595 64.4674 186.809 64.8825C187.035 65.2976 187.343 65.6246 187.733 65.8636C188.136 66.09 188.589 66.2032 189.092 66.2032Z" fill="#007E86"/>
<path d="M202.157 68.0144V62.7883C202.157 62.1846 201.962 61.6877 201.572 61.2978C201.194 60.9079 200.704 60.713 200.1 60.713C199.698 60.713 199.339 60.801 199.025 60.9771C198.71 61.1532 198.465 61.3985 198.289 61.7129C198.113 62.0273 198.025 62.3858 198.025 62.7883L197.213 62.3355C197.213 61.6437 197.364 61.0337 197.666 60.5054C197.968 59.9646 198.383 59.5432 198.911 59.2414C199.452 58.9269 200.056 58.7697 200.723 58.7697C201.402 58.7697 202.006 58.9458 202.534 59.298C203.062 59.6376 203.477 60.0841 203.779 60.6375C204.081 61.1783 204.232 61.7443 204.232 62.3355V68.0144H202.157ZM195.949 68.0144V58.9584H198.025V68.0144H195.949Z" fill="#007E86"/>
<path d="M97.3333 45.3083V41.4029H102.286C103.493 41.4029 104.55 41.167 105.455 40.6954C106.361 40.2048 107.059 39.4973 107.55 38.5729C108.04 37.6484 108.285 36.5541 108.285 35.2901C108.285 34.026 108.031 32.9412 107.521 32.0356C107.031 31.13 106.333 30.4319 105.427 29.9414C104.54 29.4508 103.493 29.2056 102.286 29.2056H97.1918V25.3285H102.342C103.852 25.3285 105.238 25.5737 106.502 26.0643C107.785 26.5359 108.899 27.2246 109.842 28.1302C110.804 29.0169 111.54 30.0734 112.049 31.2998C112.578 32.5072 112.842 33.8468 112.842 35.3184C112.842 36.7711 112.578 38.1106 112.049 39.337C111.54 40.5633 110.814 41.6198 109.87 42.5066C108.927 43.3933 107.814 44.0819 106.531 44.5725C105.267 45.063 103.889 45.3083 102.399 45.3083H97.3333ZM94.3335 45.3083V25.3285H98.7766V45.3083H94.3335Z" fill="#003B49"/>
<path d="M115.952 45.3083V25.3285H120.395V45.3083H115.952Z" fill="#003B49"/>
<path d="M130.667 37.8654L122.97 25.3285H128.12L134.035 35.4599H130.724L136.638 25.3285H141.676L133.922 37.8654H130.667ZM130.129 45.3083V35.8278H134.573V45.3083H130.129Z" fill="#003B49"/>
<path d="M149.108 45.3083V25.3285H153.551V45.3083H149.108ZM152.504 45.3083V41.4595H163.456V45.3083H152.504ZM152.504 36.9598V33.2525H162.466V36.9598H152.504ZM152.504 29.149V25.3285H163.315V29.149H152.504Z" fill="#003B49"/>
<path d="M172.041 45.5913C170.777 45.5913 169.645 45.28 168.645 44.6574C167.664 44.0348 166.881 43.1858 166.296 42.1104C165.73 41.035 165.447 39.8086 165.447 38.4314C165.447 37.0541 165.73 35.8278 166.296 34.7524C166.881 33.677 167.664 32.828 168.645 32.2054C169.645 31.5828 170.777 31.2715 172.041 31.2715C172.965 31.2715 173.795 31.4507 174.531 31.8092C175.286 32.1676 175.899 32.6676 176.371 33.3091C176.842 33.9317 177.106 34.6486 177.163 35.4599V41.4029C177.106 42.2141 176.842 42.9405 176.371 43.582C175.918 44.2046 175.314 44.6951 174.559 45.0536C173.805 45.412 172.965 45.5913 172.041 45.5913ZM172.918 41.6859C173.842 41.6859 174.588 41.384 175.154 40.7803C175.72 40.1577 176.003 39.3747 176.003 38.4314C176.003 37.7899 175.871 37.2239 175.606 36.7334C175.361 36.2428 175.003 35.8655 174.531 35.6014C174.078 35.3184 173.55 35.1769 172.946 35.1769C172.343 35.1769 171.805 35.3184 171.333 35.6014C170.88 35.8655 170.512 36.2428 170.229 36.7334C169.965 37.2239 169.833 37.7899 169.833 38.4314C169.833 39.054 169.965 39.6105 170.229 40.1011C170.494 40.5916 170.861 40.9784 171.333 41.2614C171.805 41.5444 172.333 41.6859 172.918 41.6859ZM175.833 45.3083V41.601L176.484 38.2616L175.833 34.9222V31.5545H180.078V45.3083H175.833Z" fill="#003B49"/>
<path d="M188.419 45.6479C187.607 45.6479 186.806 45.5441 186.013 45.3366C185.24 45.129 184.513 44.8366 183.834 44.4593C183.174 44.0631 182.608 43.6103 182.136 43.1009L184.598 40.6105C185.051 41.101 185.589 41.4878 186.211 41.7708C186.834 42.0349 187.513 42.167 188.249 42.167C188.758 42.167 189.145 42.0915 189.409 41.9406C189.692 41.7896 189.834 41.5821 189.834 41.318C189.834 40.9784 189.664 40.7237 189.324 40.5539C189.003 40.3652 188.588 40.2048 188.079 40.0728C187.57 39.9218 187.032 39.7615 186.466 39.5917C185.9 39.4219 185.362 39.186 184.853 38.8842C184.343 38.5823 183.928 38.1672 183.608 37.639C183.287 37.0918 183.127 36.4032 183.127 35.5731C183.127 34.6863 183.353 33.9222 183.806 33.2808C184.259 32.6204 184.9 32.1016 185.73 31.7243C186.56 31.3469 187.532 31.1583 188.645 31.1583C189.815 31.1583 190.89 31.3658 191.871 31.7809C192.871 32.1771 193.682 32.7714 194.305 33.5638L191.843 36.0542C191.409 35.5448 190.918 35.1863 190.371 34.9788C189.843 34.7712 189.324 34.6675 188.815 34.6675C188.324 34.6675 187.956 34.7429 187.711 34.8939C187.466 35.0259 187.343 35.224 187.343 35.4882C187.343 35.7712 187.504 35.9976 187.824 36.1674C188.145 36.3372 188.56 36.4881 189.07 36.6202C189.579 36.7522 190.117 36.9126 190.683 37.1013C191.249 37.2899 191.786 37.5446 192.296 37.8654C192.805 38.1861 193.22 38.62 193.541 39.1672C193.862 39.6954 194.022 40.3935 194.022 41.2614C194.022 42.6009 193.513 43.6669 192.494 44.4593C191.494 45.2517 190.135 45.6479 188.419 45.6479Z" fill="#003B49"/>
<path d="M200.899 45.3649L195.239 31.5545H199.909L203.503 42.5066H201.776L205.455 31.5545H210.125L204.239 45.3649H200.899ZM197.362 51.1098L201.493 42.1953L204.239 45.3649L201.805 51.1098H197.362Z" fill="#003B49"/>
<path d="M221.519 37.073V33.7902H225.735C226.622 33.7902 227.301 33.5638 227.773 33.111C228.264 32.6582 228.509 32.045 228.509 31.2715C228.509 30.5545 228.273 29.9602 227.801 29.4886C227.33 29.0169 226.651 28.7811 225.764 28.7811H221.519V25.3285H226.273C227.594 25.3285 228.754 25.5832 229.754 26.0926C230.754 26.5831 231.537 27.2717 232.103 28.1585C232.669 29.0452 232.952 30.064 232.952 31.2149C232.952 32.3846 232.669 33.4128 232.103 34.2996C231.537 35.1674 230.745 35.8466 229.726 36.3372C228.707 36.8277 227.509 37.073 226.132 37.073H221.519ZM218.123 45.3083V25.3285H222.566V45.3083H218.123ZM228.99 45.3083L222.764 36.7051L226.839 35.6014L234.254 45.3083H228.99Z" fill="#003B49"/>
<path d="M242.517 45.6196C241.026 45.6196 239.696 45.3177 238.526 44.714C237.376 44.0914 236.47 43.2329 235.81 42.1387C235.149 41.0444 234.819 39.8086 234.819 38.4314C234.819 37.0541 235.14 35.8278 235.781 34.7524C236.442 33.6581 237.328 32.7997 238.442 32.1771C239.555 31.5545 240.809 31.2432 242.205 31.2432C243.564 31.2432 244.762 31.5356 245.8 32.1205C246.837 32.7053 247.648 33.5166 248.233 34.5543C248.837 35.5919 249.139 36.7805 249.139 38.1201C249.139 38.3653 249.12 38.6295 249.082 38.9125C249.063 39.1766 249.016 39.4879 248.941 39.8464L237.083 39.8747V36.9032L247.101 36.8749L245.234 38.1201C245.215 37.3277 245.092 36.6768 244.866 36.1674C244.639 35.6391 244.3 35.2429 243.847 34.9788C243.413 34.6958 242.875 34.5543 242.234 34.5543C241.555 34.5543 240.96 34.7146 240.451 35.0354C239.96 35.3372 239.574 35.7712 239.291 36.3372C239.026 36.9032 238.894 37.5918 238.894 38.4031C238.894 39.2143 239.036 39.9124 239.319 40.4973C239.621 41.0633 240.036 41.5066 240.564 41.8274C241.111 42.1292 241.753 42.2802 242.488 42.2802C243.168 42.2802 243.781 42.167 244.328 41.9406C244.875 41.6953 245.356 41.3368 245.771 40.8652L248.148 43.2424C247.469 44.0348 246.649 44.6291 245.686 45.0253C244.724 45.4215 243.668 45.6196 242.517 45.6196Z" fill="#003B49"/>
<path d="M257.257 45.5913C255.993 45.5913 254.861 45.28 253.861 44.6574C252.88 44.0348 252.097 43.1858 251.512 42.1104C250.946 41.035 250.663 39.8086 250.663 38.4314C250.663 37.0541 250.946 35.8278 251.512 34.7524C252.097 33.677 252.88 32.828 253.861 32.2054C254.861 31.5828 255.993 31.2715 257.257 31.2715C258.181 31.2715 259.011 31.4507 259.747 31.8092C260.502 32.1676 261.115 32.6676 261.587 33.3091C262.058 33.9317 262.323 34.6486 262.379 35.4599V41.4029C262.323 42.2141 262.058 42.9405 261.587 43.582C261.134 44.2046 260.53 44.6951 259.776 45.0536C259.021 45.412 258.181 45.5913 257.257 45.5913ZM258.134 41.6859C259.059 41.6859 259.804 41.384 260.37 40.7803C260.936 40.1577 261.219 39.3747 261.219 38.4314C261.219 37.7899 261.087 37.2239 260.823 36.7334C260.577 36.2428 260.219 35.8655 259.747 35.6014C259.294 35.3184 258.766 35.1769 258.162 35.1769C257.559 35.1769 257.021 35.3184 256.549 35.6014C256.097 35.8655 255.729 36.2428 255.446 36.7334C255.181 37.2239 255.049 37.7899 255.049 38.4314C255.049 39.054 255.181 39.6105 255.446 40.1011C255.71 40.5916 256.078 40.9784 256.549 41.2614C257.021 41.5444 257.549 41.6859 258.134 41.6859ZM261.049 45.3083V41.601L261.7 38.2616L261.049 34.9222V31.5545H265.294V45.3083H261.049Z" fill="#003B49"/>
<path d="M274.484 45.5913C273.182 45.5913 272.022 45.28 271.003 44.6574C270.003 44.0348 269.211 43.1858 268.626 42.1104C268.06 41.035 267.777 39.8086 267.777 38.4314C267.777 37.0541 268.06 35.8278 268.626 34.7524C269.211 33.677 270.003 32.828 271.003 32.2054C272.022 31.5828 273.182 31.2715 274.484 31.2715C275.427 31.2715 276.276 31.4507 277.031 31.8092C277.804 32.1676 278.436 32.6676 278.927 33.3091C279.436 33.9317 279.719 34.6486 279.776 35.4599V41.2614C279.719 42.0726 279.446 42.8084 278.955 43.4688C278.465 44.1102 277.833 44.6291 277.059 45.0253C276.286 45.4026 275.427 45.5913 274.484 45.5913ZM275.248 41.6859C275.87 41.6859 276.408 41.5538 276.861 41.2897C277.314 41.0067 277.672 40.6199 277.936 40.1294C278.201 39.6388 278.333 39.0728 278.333 38.4314C278.333 37.7899 278.201 37.2333 277.936 36.7617C277.691 36.2711 277.333 35.8844 276.861 35.6014C276.408 35.3184 275.88 35.1769 275.276 35.1769C274.672 35.1769 274.135 35.3184 273.663 35.6014C273.21 35.8844 272.842 36.2711 272.559 36.7617C272.295 37.2522 272.163 37.8088 272.163 38.4314C272.163 39.054 272.295 39.6105 272.559 40.1011C272.824 40.5916 273.191 40.9784 273.663 41.2614C274.135 41.5444 274.663 41.6859 275.248 41.6859ZM282.408 45.3083H278.163V41.601L278.814 38.2616L278.078 34.9222V24.7625H282.408V45.3083Z" fill="#003B49"/>
</svg>
