<svg width="100%" height="100%" overflow="visible" style="display: block;" viewBox="0 0 62.5622 54.6873" fill="none" xmlns="http://www.w3.org/2000/svg">
<g id="Group 1637">
<path id="Vector (Stroke) (Stroke)" d="M5.77092 12.1236L3.2947 42.7717C3.30741 43.5783 3.71058 44.4828 4.40446 45.2068C5.11691 45.9501 5.94858 46.3148 6.61015 46.3149H14.0561C19.3597 46.315 22.7575 47.7113 25.1563 49.1416C26.2684 49.8047 27.2876 50.5607 27.8952 50.9612C28.6442 51.4548 28.8852 51.4942 28.9471 51.4942C29.0747 51.4941 29.3671 51.4264 30.151 50.9385C30.8022 50.5331 31.8708 49.7826 33.0464 49.1205C35.5702 47.6993 39.1388 46.3149 44.7145 46.3149H52.5969C53.3082 46.3149 54.2191 45.8958 55.0143 45.0814C55.7991 44.2775 56.1894 43.3742 56.2036 42.7658L54.0757 18.4202C54.0013 17.5385 54.6803 16.7706 55.5839 16.6991C56.4871 16.6277 57.2844 17.2781 57.3591 18.1592L59.494 42.6016C59.4977 42.6458 59.5 42.6897 59.5 42.7321C59.4999 44.4109 58.5755 46.0785 57.4067 47.2757C56.2321 48.4786 54.5143 49.5078 52.5969 49.5079H44.7145C39.7792 49.5079 36.7764 50.7131 34.7016 51.8815C33.5771 52.5148 32.8436 53.0576 31.9315 53.6253C31.1528 54.1101 30.1318 54.6871 28.9471 54.6871C27.7699 54.6871 26.7713 54.0817 26.043 53.6018C25.1733 53.0286 24.4915 52.4928 23.4311 51.8605C21.4869 50.7012 18.6791 49.5079 14.0561 49.5079H6.61015C4.78904 49.5077 3.13903 48.5768 1.99134 47.3792C0.83626 46.1739 -5.78125e-05 44.5062 2.99745e-09 42.7321C5.26616e-06 42.6954 0.000927358 42.6541 0.00432149 42.6109L2.48313 11.9181C2.51169 10.2408 3.38338 8.70619 4.52719 7.61874C5.69185 6.51153 7.32698 5.68721 9.09242 5.68714H14.0561C16.6056 5.68716 19.3647 5.86012 22.1641 7.0529C24.5181 8.05603 26.792 9.73321 29.0024 12.4317C31.2475 9.90789 33.5439 8.27325 35.9012 7.24909C38.7328 6.01897 41.529 5.7231 44.1821 5.69051C45.0886 5.67965 45.8377 6.38273 45.8493 7.26677L45.8432 7.43097C45.7687 8.23869 45.073 8.87289 44.2235 8.88346C41.7916 8.91334 39.502 9.18441 37.2487 10.1633C35.0061 11.1376 32.6744 12.8684 30.2694 16.0053C29.9512 16.4204 29.4448 16.6601 28.9125 16.6494C28.3799 16.6386 27.8849 16.3775 27.5849 15.9497C25.2389 12.6042 22.9811 10.8883 20.8391 9.97556C18.6753 9.05356 16.4702 8.88011 14.0561 8.88009H9.09242C8.37561 8.88014 7.52909 9.23651 6.83314 9.89809C6.13524 10.5617 5.77524 11.3533 5.77524 12.0031C5.77523 12.0401 5.77427 12.0807 5.77092 12.1236Z" fill="var(--fill-0, #003B49)"/>
<path id="Vector" d="M22.7125 28.3234L26.6755 31.9044C27.0523 31.9488 27.4327 31.8785 27.7688 31.7045L31.8723 27.2717L33.8335 25.1535L35.3773 23.4833L37.2315 21.4799C37.7227 20.9281 38.4134 20.5615 39.1521 20.5615C41.3386 20.5541 42.454 23.2463 41.8668 24.6239C40.4337 27.9938 30.1068 39.3738 27.6543 39.8404C24.5776 40.4255 21.4751 36.0928 17.9516 31.8082C17.7521 31.5675 17.6192 31.2193 17.5564 30.8157C17.0984 27.9568 20.6884 26.2607 22.7088 28.3271L22.7125 28.3234Z" fill="var(--fill-0, #007E86)" stroke="var(--stroke-0, #007E86)" stroke-width="2.25461" stroke-linecap="round" stroke-linejoin="round"/>
<path id="Vector (Stroke)" d="M55.5626 2.65865e-05C56.0641 0.000181762 56.4954 0.349492 56.592 0.834222C57.1091 3.42996 59.1792 5.48193 61.7193 5.98491C62.2164 6.08336 62.5605 6.51265 62.5622 6.99341V7.00664C62.5603 7.48731 62.2163 7.91672 61.7193 8.01515C59.1791 8.51814 57.1083 10.5702 56.5912 13.1658C56.4944 13.6505 56.0633 14 55.5618 14C55.0602 14 54.6284 13.6506 54.5316 13.1658C54.0144 10.57 51.9444 8.51812 49.4044 8.01515C48.9049 7.91619 48.5607 7.48309 48.5622 6.99964C48.561 6.51642 48.9052 6.08385 49.4044 5.98491C51.9445 5.48191 54.0152 3.4299 54.5324 0.834222L54.5545 0.744732C54.6835 0.306924 55.0924 1.59026e-05 55.5626 2.65865e-05Z" fill="var(--fill-0, #007E86)"/>
</g>
</svg>
