<svg preserveAspectRatio="none" width="100%" height="100%" overflow="visible" style="display: block;" viewBox="0 0 161.843 184.763" fill="none" xmlns="http://www.w3.org/2000/svg">
<g id="Group 1659">
<path id="Vector" d="M60.4674 87.9563C60.3053 87.6378 60.1895 87.383 60.2416 87.3483C62.3203 85.7849 75.5976 78.5006 77.0683 78.848C77.8674 79.0333 78.4754 79.4213 78.8981 80.1335C81.1216 93.3703 92.1117 96.8213 103.878 92.8781C104.283 92.9244 104.654 93.0113 104.908 93.2371C105.238 93.5266 106.356 101.106 105.777 101.871C102.436 105.31 101.654 108.124 102.853 112.872C103.073 115.374 101.758 118.049 99.0022 117.649C90.1835 112.345 78.7649 113.399 69.0371 115.652C61.8166 117.325 69.0024 121.344 72.8877 120.927C78.6317 120.353 80.4036 121.894 78.1917 125.542C75.505 132.994 86.5298 141.453 93.3161 138.969C94.59 135.009 98.151 135.403 98.3884 139.456C95.7133 145.761 97.0509 153.735 102.917 157.597C102.969 155.698 108.336 145.061 109.379 145.084C109.813 145.09 110.241 145.287 110.67 145.536C118.695 152.93 126.946 160.284 137.317 164.186C137.902 164.806 137.96 165.518 137.485 166.317L140.044 183.289L139.222 184.088C111.515 186.219 81.1795 182.472 53.1947 184.111C52.2856 184.372 51.2376 183.573 50.6296 183.509C50.3285 183.04 50.0679 182.565 49.9579 182.055C49.7379 181.054 51.1044 169.896 51.5213 169.375C51.6371 169.224 51.9729 169.253 52.3725 169.322C51.9614 169.311 51.6371 169.276 51.6024 169.149C51.2723 168.025 50.8901 158.35 51.2144 157.111L52.3725 156.294L53.0326 155.136H65.1518L65.9798 156.294L68.7708 150.915L56.8774 121.755C57.0511 119.543 56.5936 118.269 55.4877 117.939C54.3875 115.762 47.7055 100.07 48.0471 99.1143C49.1009 96.1786 57.3174 88.8885 60.4732 87.9621L60.4674 87.9563Z" fill="var(--fill-0, #E7AE49)"/>
<path id="Vector_2" d="M59.8887 86.7982C64.6252 83.5324 69.1474 81.3842 74.353 78.9812C67.0571 73.7293 61.8168 65.507 61.0583 56.3872C60.792 53.2083 61.2957 49.9599 60.8846 46.7173C60.404 42.8957 58.0763 39.8441 57.6362 36.0688C56.0728 22.6236 61.2899 12.0967 73.386 6.19629C84.5266 0.764931 93.6117 -2.44872 105.853 2.32833C125.899 10.1627 134.497 36.9663 124.909 55.8255C131.203 62.0038 134.862 71.5869 128.232 78.9812C138.273 83.434 145.8 88.4137 151.481 97.991C153.907 102.085 162.986 122.855 161.724 126.393C161.446 127.18 160.212 127.128 160.056 127.736C159.512 129.815 160.612 132.49 160.67 134.546C161.133 150.863 160.409 170.394 138.064 165.553C138.545 171.228 140.6 177.666 140.959 183.219C141.052 184.621 140.276 183.995 139.217 184.082L136.634 164.951C125.852 161.326 117.607 153.37 109.39 145.872C107.937 150.521 104.144 154.14 103.89 159.189C98.7767 158.315 95.5051 149.774 95.7773 145.02C95.9452 142.131 99.321 137.742 95.2156 137.18C94.9319 142.936 86.8486 140.353 83.6754 138.587C83.3338 138.396 78.4757 133.636 78.0993 133.162C75.6326 130.012 76.5186 125.327 78.4178 122.137C75.2099 122.183 66.4318 122.606 65.2216 118.825C64.3588 116.126 65.1984 115.663 67.4219 114.91C72.17 113.306 85.8352 112.235 90.7223 113.005C92.7142 113.318 99.3963 116.856 99.8479 116.659C103.432 115.055 100.618 110.226 101.249 107.047C101.84 104.071 104.654 102.027 104.967 100.869C105.54 98.7727 102.876 95.9701 104.469 93.764C93.7275 97.2903 83.5944 96.2133 78.9563 84.8179C78.383 83.4108 78.632 80.3014 76.8891 79.9771C75.1462 79.6529 62.5696 86.5087 60.4619 87.9736C58.9738 88.6222 58.7074 87.852 59.8829 86.8156L59.8887 86.7982Z" fill="var(--fill-0, #31241A)"/>
<path id="Vector_3" d="M60.4674 87.9559C56.0957 90.9958 52.2682 95.0028 49.0488 99.2413C52.1177 103.943 53.2468 112.53 56.1304 116.902C56.3157 117.186 56.6226 117.539 56.9874 117.487C57.329 117.139 57.7054 111.714 58.4292 110.527C58.9908 109.606 59.8478 110.492 59.871 110.816C60.0215 112.912 57.2653 118.315 57.8038 120.973L69.703 150.243C70.9479 152.154 67.3695 156.276 65.9682 156.276H52.3609V169.305C52.3609 169.496 51.8166 170.266 51.7587 171.019C51.4344 175.205 50.8785 179.31 50.6238 183.491C50.1142 183.439 48.8461 185.078 48.8809 183.202C48.9272 180.619 51.6776 167.301 50.6238 166.12C41.7414 169.971 32.2278 166.433 24.1792 162.165C14.7583 157.168 6.31017 150.671 5.43583 139.218C5.11157 134.974 4.59044 128.454 8.97374 126.421C7.15556 121.094 4.62518 115.958 2.70278 110.689C0.78038 105.42 -3.45224 98.2049 5.45912 97.1973C13.6119 96.2709 26.7386 97.012 35.3083 97.1973C39.0662 97.2784 44.5436 96.6414 47.4738 98.1412C51.4228 93.5957 54.9318 90.2199 59.8941 86.7978L60.4732 87.9559H60.4674Z" fill="var(--fill-0, #271D14)"/>
<path id="Vector_4" d="M81.8916 80.4286C73.0902 78.1009 65.8697 70.1565 63.5303 61.442C61.9669 55.6169 60.9652 40.4288 61.6253 34.3894C62.3665 27.551 68.6374 19.7224 74.9374 17.3078C78.8401 27.5857 89.4827 35.2695 99.2742 39.5891C101.069 40.3824 105.4 41.1757 106.535 42.1717C107.67 43.1676 108.365 49.5312 110.867 47.7594C112.447 46.636 113.912 35.7502 119.847 41.6042C124.306 45.9991 120.739 54.6615 115.806 57.3135C114.885 57.8057 113.287 57.7825 113.194 57.8751C112.337 58.7089 114.063 65.2694 113.652 66.6939C113.397 67.5682 110.351 70.4634 109.569 71.9168C107.294 76.1553 107.439 80.8223 108.996 85.2751C104.978 89.3573 104.769 92.8953 98.3304 93.6886C88.9963 94.835 82.4938 92.1309 80.1545 82.7505L81.3183 82.102C87.3113 84.4992 94.1961 80.8802 99.0542 77.3018C95.3889 79.7627 91.5904 81.1698 87.2187 81.6388C85.7132 81.8009 82.4243 81.8994 81.8858 80.4286H81.8916Z" fill="var(--fill-0, #E8AC79)"/>
<path id="Vector_5" d="M147.902 137.747C148.961 136.746 143.35 133.706 142.719 133.381C141.625 132.82 130.583 129.172 131.115 128.494C133.767 127.776 136.396 126.879 139.1 126.34C141.804 125.802 156.842 123.653 157.745 126.016C158.151 127.076 158.706 131.876 158.897 133.416C159.992 142.275 159.824 163.231 147.647 164.418C134.317 165.715 123.692 156.589 114.318 148.471C111.88 146.363 105.58 139.05 103.316 138.048C101.909 137.423 100.23 137.979 98.6546 137.498C96.9928 136.989 94.9372 133.538 93.8486 133.746C92.401 134.024 88.7821 137.962 93.4723 136.016C95.441 140.944 87.0797 140.388 86.518 136.856C85.9158 133.045 88.9674 130.805 90.4729 128.083C92.0884 125.171 89.7606 126.462 88.3652 128.297C86.4486 130.822 84.8852 133.891 85.3658 137.168C80.2818 136.439 81.7873 130.724 83.3449 127.33C84.3177 125.217 86.4543 123.833 86.5238 121.54C82.9743 124.134 80.4382 128.645 80.7393 133.121C77.1319 131.841 77.5372 127.041 78.9037 124.047C79.9865 121.679 82.2969 120.428 83.0554 118.072C81.3994 117.799 80.4671 120.561 79.3206 120.729C78.4521 120.857 72.4417 120.527 71.1852 120.388C68.4116 120.081 63.7214 117.533 68.2784 116.329C75.638 114.377 88.6084 113.474 95.6089 116.236C109.153 121.575 122.407 129.201 137.05 132.698C138.927 132.634 147.236 138.39 147.907 137.759L147.902 137.747Z" fill="var(--fill-0, #E9AD79)"/>
<path id="Vector_6" d="M128.214 127.33C127.78 125.28 126.593 113.538 125.886 112.854C125.244 112.223 124.705 112.802 124.717 113.729C124.74 115.894 127.056 126.531 126.471 127.324L113.171 122.403C117.375 120.943 115.348 112.941 115.759 112.241C116.738 110.573 120.496 109.513 121.573 105.338C122.389 102.171 120.907 99.2353 121.225 97.614C121.271 97.3651 124.248 95.2805 125.035 94.3251C128.55 90.0808 128.203 85.9928 126.483 81.0073C142.036 84.3136 150.246 96.6471 155.713 110.544C156.402 112.298 160.113 122.657 160.05 123.572C160.021 123.989 159.407 124.215 158.874 124.209C156.68 124.169 153.738 123.236 151.671 123.231C149.916 123.225 146.06 123.653 144.149 123.868C138.735 124.464 133.501 126.166 128.22 127.336L128.214 127.33Z" fill="var(--fill-0, #E6AD49)"/>
<path id="Vector_7" d="M81.8917 80.4291C83.7909 80.1859 86.026 80.6549 87.9658 80.4291C93.5477 79.7574 99.3033 76.4164 103.032 72.3342C104.439 72.091 103.999 73.3764 103.6 74.0655C100.264 79.8674 86.5529 87.0938 80.1488 82.751C80.0735 82.4615 79.1934 81.9346 79.564 81.0197C80.4789 81.4193 81.4632 80.4928 81.8859 80.4349L81.8917 80.4291Z" fill="var(--fill-0, #BC7A43)"/>
<path id="Vector_8" d="M10.3779 125.883C10.3779 125.883 1.11607 102.721 1.6951 101.853C2.27414 100.984 43.962 101.274 43.962 101.274C44.4774 101.274 46.7761 103.202 47.002 104.024L66.6081 152.785C67.1234 153.381 66.3417 154.545 65.9654 154.545H23.1167C22.5261 154.545 19.4978 152.669 19.932 152.235C22.7056 151.598 26.8341 149.363 27.8822 146.572C28.1659 145.807 28.3281 144.123 27.4595 143.543C29.1966 142.385 32.0918 139.78 27.8822 137.464C28.3281 136.595 28.5771 136.888 28.9071 135.726C30.0338 134.048 28.6176 131.094 21.9587 131.094C25.7224 128.489 21.9587 125.605 19.3472 125.605C16.1683 125.014 11.8048 125.341 10.3779 125.883Z" fill="var(--fill-0, #ABA198)"/>
<path id="Vector_9" d="M21.6662 127.921C24.0461 131.361 11.2262 131.639 10.0971 133.995C9.86549 135.188 10.5661 134.98 11.4231 134.742C13.6871 134.111 15.3895 133.023 18.0704 132.704C20.1897 132.449 29.738 131.812 27.1902 136.034C26.3854 137.365 13.2413 139.091 12.4132 140.087C12.338 140.174 12.1932 141.824 12.7085 141.818C15.32 140.961 27.5319 136.254 28.5857 139.861C29.6396 143.468 16.4086 144.545 14.7294 147.313C16.3738 148.68 26.7154 142.658 26.8718 145.57C27.0281 148.483 17.0339 151.911 17.0513 152.525C19.049 153.416 20.3229 155.35 22.5811 155.674L51.2086 156.288C52.5346 165.194 48.4119 166.647 40.4675 166.161C32.1757 165.651 15.9569 157.11 11.012 150.452C7.01084 145.067 2.59859 128.193 12.17 126.815C13.7566 126.584 20.9077 126.838 21.6604 127.933L21.6662 127.921Z" fill="var(--fill-0, #EBAE7C)"/>
<path id="Vector_10" d="M45.708 98.9575C47.034 99.2412 48.5858 101.32 48.9969 102.617C54.2025 118.043 62.7317 133.416 67.6824 148.784C67.8561 149.322 69.379 152.576 67.7171 152.235L46.5418 101.019C45.9686 100.48 45.2679 100.272 44.5094 100.156C42.3091 99.8087 37.746 100.226 35.2793 100.116C27.1734 100.116 11.2493 100.405 2.85325 100.116C2.14104 100.087 3.71439 98.668 4.59072 98.668L45.7022 98.9633L45.708 98.9575Z" fill="var(--fill-0, #DBD5CF)"/>
<path id="Vector_11" d="M81.3068 57.8515C83.067 59.4091 75.03 61.6731 73.5882 58.2973C71.7758 54.0472 75.7365 51.98 76.0781 48.2221C76.2344 46.4676 75.4527 45.0721 75.528 43.3756C80.8841 46.0449 73.953 54.3077 74.4452 56.2823C75.3659 59.9591 81.023 57.6025 81.3126 57.8573L81.3068 57.8515Z" fill="var(--fill-0, #AE6C35)"/>
<path id="Vector_12" d="M96.3676 41.0475C92.2043 40.1499 88.2379 39.5246 83.9241 39.8952C83.4261 39.901 83.5361 38.6618 83.6346 38.4476C84.8332 35.7551 95.9912 36.9768 96.3676 41.0475Z" fill="var(--fill-0, #382417)"/>
<path id="Vector_13" d="M91.1503 61.3201C92.9917 63.3062 84.4972 66.1898 83.1828 66.3751C81.133 66.6704 73.6461 67.0294 72.627 65.0723C72.407 63.781 73.0728 64.2211 73.9414 64.3311C79.0659 64.9912 79.9228 66.1262 85.5163 64.0822C86.4659 63.7347 90.9187 61.0769 91.1445 61.3201H91.1503Z" fill="var(--fill-0, #2E1C11)"/>
<path id="Vector_14" d="M62.7893 42.2065C62.3203 41.7259 63.1425 40.3941 63.6115 39.8498C65.4355 37.7189 72.5808 37.441 72.6213 39.6066C72.6445 40.8978 67.798 40.3362 66.6689 40.591C65.7598 40.7936 63.4784 42.9071 62.7893 42.2065Z" fill="var(--fill-0, #3A2616)"/>
<path id="Vector_15" d="M89.9405 50.8391C86.9122 52.8947 84.9261 45.6509 88.0355 45.1356C89.9927 44.8113 91.3823 49.8605 89.9405 50.8391Z" fill="var(--fill-0, #392717)"/>
<path id="Vector_16" d="M70.8326 51.4126C67.5205 53.4624 67.1383 46.0565 68.8754 45.6859C70.8152 45.269 72.3207 50.4919 70.8326 51.4126Z" fill="var(--fill-0, #362212)"/>
<path id="Vector_17" d="M118.371 43.3752C119.077 44.0121 116.408 45.9172 116.176 46.6757C115.592 48.6329 116.628 52.2113 113.165 52.634C113.478 51.4296 115.754 41.0243 118.371 43.3752Z" fill="var(--fill-0, #AD6E40)"/>
</g>
</svg>
