<svg width="100%" height="100%" overflow="visible" style="display: block;" viewBox="0 0 144.803 192.356" fill="none" xmlns="http://www.w3.org/2000/svg">
<g id="Group 1627">
<path id="Vector" d="M13.1479 185.559L12.7051 185.465C12.9869 181.108 13.386 176.748 13.8992 172.388L14.8953 172.357C25.591 177.767 39.4361 169.285 48.6896 163.597C57.2924 157.852 65.8416 152.056 74.3271 146.213C77.7079 145.516 80.9008 145.677 83.9026 146.693L102.296 146.653C102.758 146.66 103.114 146.844 103.282 147.277C101.732 159.844 102.695 172.948 103.63 185.649L103.362 186.226C100.008 186.964 96.5268 188.315 92.9683 189.08C70.839 193.843 44.9969 193.252 22.928 188.342C20.446 187.789 14.9892 185.703 13.1412 185.552L13.1479 185.559Z" fill="var(--fill-0, #8FBDBF)"/>
<path id="Vector_2" d="M13.1478 185.559C13.0103 185.549 12.4905 186.011 12.145 185.894L13.443 172.046C5.54446 164.902 4.19281 152.979 4.04859 142.843C3.77357 142.035 0.526958 142.021 0.0875924 139.425C-0.184077 137.805 0.248586 134.227 0.406221 132.402C1.39899 120.848 4.59864 101.814 12.1517 92.8323C19.7048 83.8505 34.12 80.3154 45.2987 77.8503C46.4122 71.565 46.818 65.1623 47.0226 58.7764C42.9744 59.0548 38.7518 55.8685 37.4706 52.0618C37.0815 50.9047 37.1252 49.0667 36.7931 48.3792C36.5986 47.9767 34.5326 46.7257 33.9356 45.8704C31.722 42.7043 33.9087 40.6215 33.5532 39.2296C33.295 38.2201 31.1484 37.5527 30.917 34.7991C30.6588 31.7369 32.9394 29.8051 32.9394 29.1041C32.9394 28.0107 30.6889 26.7161 31.4067 23.2079C32.0406 20.1088 34.9384 19.485 35.2268 18.6465C35.532 17.7544 35.1296 16.2149 35.3576 15.088C35.9077 12.3814 39.3488 10.3354 42.0051 11.0163C42.6424 7.36386 45.3423 4.26147 49.2161 4.10383C50.5543 4.05017 53.1167 5.21063 53.5058 5.09324C53.7037 5.03287 55.3706 2.8025 56.095 2.28935C59.2142 0.0858121 62.3501 0.42791 65.3016 2.7153C67.7936 -0.269709 72.8681 -1.02434 75.843 1.61856C76.5373 2.23569 77.1242 3.69129 77.2316 3.76172C77.3959 3.87576 80.1294 2.77232 81.0819 2.76226C83.101 2.73543 85.4789 3.94955 86.5455 5.67683C87.1156 6.60252 87.498 8.99723 87.6355 9.11126C87.7361 9.19511 89.5238 9.16492 90.2314 9.36951C93.1192 10.1946 94.3299 13.4513 93.8235 16.2048C93.6826 16.9662 92.6195 18.9584 92.6865 19.3274C92.7536 19.6963 94.0013 20.6555 94.3803 21.3162C96.728 25.4081 93.5216 29.198 90.2784 31.5189C90.6507 34.2926 90.597 37.0563 90.6373 39.8501C90.701 44.1901 91.1001 47.9801 91.2879 52.2463C91.6938 61.3723 89.2051 71.7696 79.8845 75.3818C79.093 75.687 76.3763 76.1364 76.2422 76.2705C75.9403 76.5724 75.6653 80.4093 76.0174 80.9359C76.3294 81.4054 85.0194 84.0986 86.5857 84.7896C89.071 85.8896 91.6971 87.3151 93.9443 88.8344C94.7492 89.3777 97.912 92.232 98.1702 92.3225C98.3178 92.3762 98.5056 92.3158 98.6632 92.3225C99.7969 88.2777 104.482 88.5493 107.903 88.6197C115.778 88.7774 123.814 89.0725 131.689 89.3174C134.071 89.3912 140.074 88.8445 141.845 89.5589C143.086 90.0586 144.686 92.668 144.803 93.9861C142.68 100.982 139.377 107.694 136.888 114.613C140.869 116.132 139.575 118.896 139.705 121.951C139.759 123.192 140.383 124.225 140.235 125.657C139.88 129.068 137.317 136.323 135.06 138.946C134.581 139.502 132.575 141.025 132.535 141.189C132.354 141.927 132.615 143.229 132.535 144.138C131.978 150.738 131.502 158.556 128.909 164.66C124.066 176.057 112.102 179.988 103.027 170.469L104.043 182.698L103.983 186.018C103.627 186.843 103.402 186.223 103.359 186.233C103.007 184.338 102.822 182.279 102.691 180.36C102.074 171.328 101.407 161.514 102.021 152.529C102.071 151.791 102.699 147.994 102.494 147.786C94.9508 148.003 85.9899 148.161 83.7281 147.334C81.4664 146.506 78.3943 145.381 74.2683 147.334C70.1422 149.287 57.1078 159.039 50.3561 163.353C43.6045 167.666 28.0381 176.856 19.1581 174.678C17.29 174.38 15.8813 173.347 14.1473 172.817L13.1378 185.562L13.1478 185.559Z" fill="var(--fill-0, #39190E)"/>
<path id="Vector_3" d="M35.9545 111.939C35.874 111.661 35.3106 111.325 34.9517 111.44V137.265C23.8233 135.645 11.9202 134.78 1.07693 138.271C1.38884 130.242 2.51241 121.961 4.25645 114.119C8.07995 96.9438 13.2182 88.9949 30.0784 82.9243C34.9551 81.1702 40.2342 79.7079 45.3389 78.9096C45.4428 81.0226 47.0561 83.1725 48.3742 84.7623C53.2609 90.6686 62.8129 96.4072 70.6242 93.2813C72.7741 92.4227 75.8664 89.5349 75.8664 87.1201V82.2569C83.7616 84.0143 91.9486 87.7137 97.8314 93.3115L90.1207 112.1C88.1519 109.072 85.556 112.516 83.3491 113.717C79.1197 116.021 75.9235 116.813 72.5226 120.666C70.9093 122.497 69.1619 126.106 67.6191 127.502C66.0763 128.897 58.3086 131.369 55.9138 132.231C49.2294 134.645 42.3471 136.547 35.7634 139.25C34.6767 139.371 35.8606 138.258 35.9713 137.443C36.5985 132.73 35.2368 126.324 35.9713 121.679C36.3134 119.512 38.7048 115.924 39.3118 113.613L38.8087 113.11L38.356 113.663L35.9545 118.808C35.6259 117.004 36.4006 113.489 35.9545 111.933V111.939Z" fill="var(--fill-0, #8FBDBF)"/>
<path id="Vector_4" d="M106.002 125.235C106.149 125.876 106.136 126.583 105.874 127.194C105.076 129.069 96.4363 132.101 94.2529 132.674C93.6156 132.842 91.07 133.117 90.956 133.238C90.9224 133.274 90.9224 134.203 90.956 134.24C91.8213 135.139 102.074 130.96 103.698 130.219C103.691 130.621 104.02 131.004 103.999 131.4C103.879 133.791 97.7276 136.675 95.6381 137.417C94.813 137.708 91.1002 138.413 90.9593 138.607C90.7614 138.879 91.1404 139.472 91.5127 139.573C92.9952 139.966 98.3145 137.101 100.012 136.595C101.501 138.154 93.6827 142.35 92.6296 142.793C86.2403 145.483 81.7326 144.809 75.3937 145.681C72.9621 146.016 62.8835 153.864 60.0092 155.786C50.1922 162.356 31.7757 175.199 19.725 173.787C13.8153 173.092 9.72018 166.988 7.86881 161.83C5.22926 154.471 4.68592 145.996 4.91399 138.252C5.9034 136.846 22.1868 136.776 24.7358 136.917C25.8694 136.977 33.9591 137.916 34.2677 138.289C34.4488 138.507 34.3113 139.483 33.949 139.784C33.3889 140.254 27.0064 142.243 25.4401 143.014C23.6424 143.9 17.1793 147.888 16.5086 149.511C16.2604 150.115 16.8943 150.118 17.2934 149.957C17.8099 149.749 20.1576 147.378 21.0967 146.717C29.8774 140.549 46.4223 136.746 56.9269 132.909C59.543 131.953 65.5968 130.155 67.6125 128.837C69.1319 127.841 71.872 122.797 73.5322 121.006C76.8627 117.414 80.4246 116.468 84.4795 114.177C86.0827 113.272 90.3154 109.297 89.2086 114.549C88.8665 116.169 85.4924 119.731 84.1072 120.516C83.7551 120.714 80.6996 121.002 81.9003 121.673C82.4705 121.992 84.939 121.884 85.7775 121.851C90.4294 121.65 97.1775 120.412 101.541 120.818C102.906 120.945 105.405 121.573 104.07 123.374C103.47 124.185 97.7544 125.738 96.4028 126.104C95.2389 126.419 90.7212 127.083 90.2885 127.368C89.6882 127.761 90.0839 128.465 90.4495 128.512C90.8151 128.559 96.7784 127.029 97.7443 126.774C100.417 126.073 103.325 124.165 106.008 125.242L106.002 125.235Z" fill="var(--fill-0, #C07756)"/>
<path id="Vector_5" d="M58.4261 71.1925C58.1008 71.4776 60.737 74.372 61.1026 74.7175C64.594 77.9976 70.014 80.9089 74.8604 80.9156C74.7431 84.9705 75.8365 88.9785 71.9526 91.5945C66.2073 95.465 57.487 91.8092 52.7211 87.7979C50.8764 86.2484 46.1205 81.09 46.0736 78.7489C46.0367 76.8204 47.1435 72.9667 47.3548 70.6894C47.7137 66.8056 47.7204 62.8781 48.0054 58.9909C48.1094 58.6018 49.6724 58.8098 49.3671 57.7801C46.03 58.0015 43.8432 57.8606 41.2104 55.7074C35.6831 51.1896 37.2728 40.4972 45.158 42.7075C49.6388 43.9619 48.5387 48.4863 49.9373 49.4254C50.598 49.8682 53.4355 49.0532 53.6736 48.6674C54.4853 47.3426 51.3996 39.9874 52.2214 38.6626C52.4561 38.2836 53.687 37.7638 54.2203 36.9655C55.9476 34.3864 54.5523 31.2303 53.734 28.6008C56.6586 27.8931 58.2215 25.5655 57.7621 22.5604C61.4782 24.338 65.4493 23.9791 67.9849 20.548C70.6445 22.4296 73.6966 23.5196 76.9499 22.4631C77.8656 22.168 79.3178 20.9773 79.7807 20.9371C80.2771 20.8901 81.5985 22.1982 82.5544 22.4128C83.574 22.6442 85.318 22.3424 85.9352 22.7214C87.431 23.6336 89.487 32.1459 89.6346 34.1147C90.0639 39.9371 90.0035 46.048 90.2886 51.9074C91.1371 69.4049 80.9244 80.7479 63.1317 73.3625C62.3234 73.0271 58.8353 70.837 58.4328 71.1892L58.4261 71.1925Z" fill="var(--fill-0, #C07755)"/>
<path id="Vector_6" d="M127.179 119.825L121.588 121.438C120.373 121.978 118.827 123.45 119.263 124.859C119.464 125.506 120.789 126.408 120.471 126.861C120.152 127.314 117.908 127.042 118.462 130.037C118.69 131.278 120.025 131.389 120.306 131.879C120.477 132.177 119.86 133.24 120.306 134.236C121.135 136.084 125.099 136.222 126.84 136.594C125.807 138.617 124.277 145.153 122.339 146.009C120.92 146.633 119.43 146.224 117.62 146.321C115.81 146.418 90.6069 146.666 89.1782 146.666C87.7495 146.666 85.5721 146.276 84.9584 146.098C84.9584 146.098 85.6906 146.093 88.8969 145.348C92.1033 144.604 100.79 140.723 101.031 137.091C101.058 136.698 100.659 136.014 100.703 135.95C100.894 135.665 103.597 134.434 104.325 133.026C105.17 131.399 104.254 130.463 104.422 129.742C104.59 129.021 107.789 128.139 106.984 125.426C106.636 124.248 104.801 123.963 104.704 123.839C104.607 123.715 106.22 122.635 104.711 120.985C102.406 118.463 94.206 120.888 90.9526 120.489L101.39 94.8745C101.823 93.7577 102.732 93.107 103.711 92.4999C109.788 92.2249 115.906 92.2417 121.99 92.3021C127.863 92.3591 135.802 92.121 141.443 92.6375C142.798 92.7616 144.404 93.2143 143.72 94.9316L136.05 114.133L135.745 114.361C133.548 113.375 125.304 113.834 124.552 116.373C123.972 118.325 125.408 119.519 127.169 119.828L127.179 119.825Z" fill="var(--fill-0, #ABA198)"/>
<path id="Vector_7" d="M86.9813 21.9401C87.1725 21.6148 89.2285 21.1184 88.608 19.5421L86.002 21.4639C84.1305 22.1682 82.0108 21.3096 80.5652 20.0418C80.5585 19.8339 82.477 18.2374 81.7291 17.523C80.4613 18.385 79.8207 19.7567 78.459 20.6254C74.8837 22.9094 70.9696 21.8764 67.9779 19.2369C65.2243 24.0162 61.1359 22.8222 56.7456 21.219C57.8624 24.7206 56.4638 28.212 52.3854 27.5915C53.2206 30.4223 54.8707 32.8237 53.9115 35.9931C53.3279 37.915 50.8728 37.7674 50.7051 37.9921C50.3999 38.408 53.3044 46.595 53.0428 48.0304C49.1556 49.7275 50.2423 45.7766 48.3641 43.516C45.1912 39.6992 37.5241 41.8022 37.286 47.0444C35.1999 46.8867 33.8113 44.1902 33.922 42.1912C33.9757 41.2085 34.9651 39.602 34.8879 39.2096C34.6968 38.2034 32.027 37.4521 31.913 34.447C31.7923 31.2674 34.1299 30.0902 34.2239 29.0404C34.2775 28.4401 33.2948 27.947 32.9795 27.3735C31.8627 25.341 31.8694 22.725 33.59 21.0379C34.2272 20.4141 36.1054 19.7467 36.253 19.3241C36.6823 18.1032 35.2535 16.5 36.9506 14.0014C38.48 11.7475 40.5293 11.7006 43.0078 12.0192C43.4774 9.12809 43.8765 6.99834 46.7877 5.7272C50.4033 4.14414 53.0764 6.61599 53.8578 6.43153C54.1865 6.35439 56.1687 2.58791 58.7445 1.92383C62.5579 0.941127 64.0303 3.77855 65.3015 3.78191C65.9857 3.78191 67.0522 2.14518 67.9108 1.69576C70.1278 0.535293 73.2134 0.676165 75.1788 2.27935C75.8798 2.84952 76.5942 4.60698 77.0906 4.75456C77.6507 4.9189 79.1801 3.92613 80.0856 3.80539C82.7654 3.45658 85.8142 4.98598 86.5218 7.70938C86.6895 8.3634 86.391 9.63454 86.9109 10.0035C87.4878 10.4093 89.47 9.84919 91.0698 10.8755C93.166 12.2238 93.2398 14.813 92.6159 17.0031C92.4147 17.7142 91.2643 19.5387 91.3012 19.6829C91.3482 19.8808 93.0184 20.9038 93.4611 21.5678C94.9838 23.8485 94.2795 25.8777 92.7769 27.8934C89.3962 32.4246 90.0267 29.4261 88.8696 26.4948C88.5174 25.606 86.6426 22.5204 86.9847 21.9401H86.9813Z" fill="var(--fill-0, #4C2A21)"/>
<path id="Vector_8" d="M131.538 141.957C130.938 152.143 130.663 167.732 120.363 173.206C116.922 175.034 113.709 175.416 109.986 174.078C107.866 173.317 103.338 170.295 103.02 167.964C102.58 164.747 102.943 160.515 102.684 157.201C103.147 155.829 103.146 148.34 103.713 147.786C103.994 147.693 106.807 147.599 107.557 147.599C106.763 150.198 105.894 152.214 105.482 154.967C105.327 155.99 104.6 158.187 106.052 158.053C105.934 156.255 107.78 148.38 109.058 147.599C110.174 147.432 119.146 147.588 121.322 147.33C122.453 147.196 123.422 146.69 124.116 145.764C125.548 143.852 126.554 138.439 127.678 137.252C128.661 136.212 130.663 138.221 130.871 137.091C131.002 136.386 130.183 136.353 129.751 136.205C127.832 135.538 122.459 135.457 121.456 134.106C119.29 131.191 126.517 131.818 128.017 131.905C128.936 131.959 131.099 132.684 131.706 132.573C134.024 132.147 128.775 130.936 128.355 130.899C126.474 130.735 119.686 131.651 119.169 129.658C118.468 126.948 127.346 126.412 129.043 126.522C130.569 126.623 132.008 127.28 133.557 127.203C133.655 126.106 132.347 126.143 131.612 125.966C130.053 125.59 128.275 125.452 126.668 125.513C124.975 125.58 121.235 126.948 120.299 124.842C119.364 122.736 123.72 121.636 125.163 121.32C128.677 120.549 132.092 120.643 135.57 121.498C135.519 121.092 135.801 120.747 135.345 120.489C133.531 119.459 129.821 119.566 127.772 119.067C123.875 118.121 125.112 115.957 128.449 115.22C131.186 114.616 136.864 114.281 138.535 117.021C139.705 118.942 138.843 119.791 138.9 121.666C139.028 125.895 138.826 127.921 137.586 132.07C136.76 134.823 135.197 137.701 133.041 139.599C132.343 140.217 128.882 142.209 128.865 142.46C128.788 143.621 131.226 142.259 131.538 141.957Z" fill="var(--fill-0, #C17855)"/>
<path id="Vector_9" d="M142.607 91.9836C142.104 91.7354 141.691 91.6415 141.121 91.6281C133.967 91.4503 126.779 91.732 119.622 91.6616C114.762 91.6146 109.413 90.7191 104.536 91.3061C103.241 91.4604 102.182 92.1815 101.357 93.1575C97.2715 101.982 93.8504 111.148 90.1007 120.137C89.6647 120.968 88.7726 120.868 87.9408 120.824C91.7006 110.89 95.7353 100.925 100.173 91.3027C102.235 88.908 107.545 89.5688 110.593 89.6224C118.904 89.7666 127.44 89.874 135.738 90.3033C136.358 90.3368 144.22 89.8035 142.607 91.9836Z" fill="var(--fill-0, #DBD5CF)"/>
<path id="Vector_10" d="M87.2667 119.151C87.2599 120.794 86.8508 121.049 85.2576 120.824C85.3918 120.412 86.9279 118.785 87.2667 119.151Z" fill="var(--fill-0, #DBA34F)"/>
<path id="Vector_11" d="M64.4635 98.0173C56.2195 97.9334 46.3354 91.0142 42.6092 83.82C41.9116 82.4717 41.1368 79.6611 42.7299 82.0223C48.0929 89.9678 51.9902 94.3615 61.7636 96.8635C62.7429 97.115 64.4869 96.5952 64.4635 98.0173Z" fill="var(--fill-0, #3C1C11)"/>
<path id="Vector_12" d="M33.6069 104.054C33.2715 104.369 32.6242 103.977 32.3324 103.487C31.6616 102.367 31.1485 100.241 30.3133 98.7984C29.1294 96.7626 26.7313 93.9352 24.8598 92.5131C23.7765 91.6914 22.6395 91.3694 21.6199 90.7288C20.3085 89.9071 21.1537 89.3503 22.6731 90.0044C25.6346 91.2822 29.3474 95.364 30.9841 98.1276C31.3732 98.785 33.845 103.829 33.6103 104.051L33.6069 104.054Z" fill="var(--fill-0, #371A11)"/>
<path id="Vector_13" d="M79.3881 84.947C80.8135 84.9772 79.056 90.5749 78.7173 91.3128C77.4897 93.9591 74.1123 96.508 71.3587 97.3667C70.3928 97.6685 68.2966 97.5578 69.4906 96.8401C70.3425 96.3303 72.2442 96.0855 73.6226 95.2704C75.4841 94.1704 77.473 92.1949 78.2343 90.1557C78.5731 89.2501 78.9822 84.9403 79.3914 84.947H79.3881Z" fill="var(--fill-0, #421E12)"/>
<path id="Vector_14" d="M68.0718 55.5166C70.0104 55.2214 80.4009 55.9895 82.2422 56.5965C86.931 58.136 83.292 63.6733 80.4612 65.2229C76.5908 67.3426 70.6744 66.2492 67.4714 63.3178C64.8721 60.9399 63.4299 56.2276 68.0684 55.5199L68.0718 55.5166Z" fill="var(--fill-0, #451C11)"/>
<path id="Vector_15" d="M65.7174 33.3702C67.1663 33.1421 72.6365 32.8906 71.8081 35.4161C71.3184 36.9052 68.3569 35.557 66.9919 35.6341C65.6268 35.7112 61.5887 38.0422 61.421 36.1372C61.3002 34.7822 64.5435 33.558 65.7174 33.3736V33.3702Z" fill="var(--fill-0, #411C0F)"/>
<path id="Vector_16" d="M80.941 35.5941C80.7766 35.3325 80.8538 34.5309 80.9645 34.1988C81.7057 31.9517 89.3158 33.025 89.3024 35.138C89.2856 37.0967 86.3207 35.3727 85.3816 35.3224C84.3855 35.2721 81.4474 36.389 80.9443 35.5907L80.941 35.5941Z" fill="var(--fill-0, #3D190E)"/>
<path id="Vector_17" d="M79.5526 38.3236C79.7806 38.5416 79.2071 40.004 79.2172 40.5003C79.3178 45.4709 87.0654 51.5549 79.7136 54.0402C78.4927 52.9401 79.5224 53.242 80.1798 52.8797C81.0048 52.4236 82.219 51.6354 82.2122 50.5622C82.2055 49.2407 78.9858 44.7397 78.6269 42.4322C78.4156 41.0739 78.6034 39.682 78.5464 38.3169C78.8181 38.3572 79.4754 38.2498 79.5492 38.3203L79.5526 38.3236Z" fill="var(--fill-0, #451C0D)"/>
<path id="Vector_18" d="M67.7066 41.051C70.5742 40.1052 70.9063 45.7129 68.639 46.045C66.0498 46.424 66.459 41.4635 67.7066 41.051Z" fill="var(--fill-0, #411B0E)"/>
<path id="Vector_19" d="M86.1833 45.2801C83.8322 47.6614 82.3431 41.0004 84.5701 40.4638C86.7971 39.9272 87.1124 44.341 86.1833 45.2801Z" fill="var(--fill-0, #441B0D)"/>
<path id="Vector_20" d="M48.3609 53.7491C47.7102 54.5205 46.4961 50.4925 45.8555 50.4388C45.5872 50.4153 43.1086 52.3606 43.0046 51.237C42.9007 50.1135 45.6643 50.0263 45.339 49.228C44.8124 48.631 44.2053 48.0978 43.5077 47.702C43.1723 47.5108 40.2913 46.7797 41.3143 46.2028C44.1114 44.6231 49.2329 52.7128 48.3575 53.7491H48.3609Z" fill="var(--fill-0, #431A0C)"/>
<path id="Vector_21" d="M77.8791 53.4105C77.2855 53.6218 75.1926 53.2797 75.206 52.5754C75.2228 51.6597 78.124 52.0924 77.8791 53.4105Z" fill="var(--fill-0, #532617)"/>
<path id="Vector_22" d="M68.7594 56.519C71.4426 56.3077 79.0158 56.9147 81.7224 57.448C84.2111 57.9411 80.8135 59.2759 79.6933 59.4201C76.8022 59.7924 69.2424 59.2424 66.8041 57.609C65.7912 56.9315 68.2731 56.5559 68.7594 56.519Z" fill="var(--fill-0, #F4F3ED)"/>
<path id="Vector_23" d="M66.8107 60.792H72.3447C72.9384 60.792 75.8898 62.2175 76.517 62.6568C76.8658 62.9017 79.3813 65.1522 78.0464 65.1522H73.0155C72.4722 65.1522 69.9936 63.8508 69.3832 63.4182C68.4407 62.7474 67.5016 61.7211 66.8107 60.792Z" fill="var(--fill-0, #DD6D59)"/>
</g>
</svg>
