<svg preserveAspectRatio="none" width="100%" height="100%" overflow="visible" style="display: block;" viewBox="0 0 106.102 112" fill="none" xmlns="http://www.w3.org/2000/svg">
<g id="Group 1632">
<path id="Vector" d="M66.2987 8.27641C66.4947 8.08481 66.7398 8.16056 67.0338 8.51257C68.1031 8.71753 68.4373 9.60869 68.0452 11.1816L68.3215 11.6227C67.9739 15.1695 67.1185 18.7921 65.8041 22.0582C65.666 22.6062 65.5235 23.2078 66.223 23.3147C66.918 24.0053 67.671 24.4777 68.6423 24.6514L68.7759 24.9856C68.7982 25.2619 68.571 25.3555 68.3393 25.2752C68.1611 25.4802 67.5908 25.204 67.466 24.9856C66.5126 24.5846 66.4635 24.6336 67.319 25.1327C69.0031 25.8411 70.7274 26.4471 72.4918 26.9506C72.7814 27.1333 72.1086 29.6553 71.3868 29.3434C71.3244 29.4414 71.222 29.5795 71.1462 29.5483C69.1279 28.7998 67.3457 27.7259 66.067 25.9525C65.0556 24.9812 64.2581 24.4554 63.5363 26.0817C62.2042 28.5458 60.6759 30.9074 58.9517 33.1664C57.8066 35.0423 56.7952 37.3995 60.0477 37.1811L60.1992 37.4797C60.2928 37.8049 60.3596 38.1035 59.9096 38.0589C59.9007 38.2594 59.7002 38.2238 59.62 38.0589C59.2858 37.9431 58.9962 37.894 58.7467 37.9119C58.6532 38.2149 58.3814 38.2772 57.9314 38.099C56.4878 37.3415 54.621 37.6623 53.966 39.2798L52.9858 42.7241L52.6472 42.8489L52.6606 42.9826C51.9566 43.1207 51.8542 43.1742 52.3532 43.1385L52.4334 43.6465C51.6492 45.0367 50.6557 46.2709 49.4482 47.3492L49.2878 47.5542C48.4591 47.6032 48.3166 47.679 48.869 47.7859L48.4458 48.4275C46.2091 50.0628 43.9279 51.5421 41.6067 52.8699C41.0319 52.812 41.1255 52.9056 41.8963 53.1596L41.7002 53.4225C40.2121 53.8458 40.3235 55.4766 40.7512 56.6841C41.2547 58.8764 39.1918 58.7872 37.8017 58.1233C37.7705 55.285 36.0685 55.8197 35.2888 58.0075C37.2849 58.0609 37.3517 59.6383 37.0933 61.2201C36.4606 61.6969 35.9661 62.3296 35.6096 63.1272L35.2176 63.1851L34.9725 63.1628C34.4601 62.3073 34.0591 61.4919 33.7651 60.7166L33.4086 63.145C33.2973 64.7402 33.3686 65.9432 34.8567 64.1253C35.1284 63.8178 35.672 64.3213 35.7433 64.6377C35.7923 64.8427 34.5893 68.1444 34.3978 68.5989L34.0547 68.7058L33.8007 68.7192C34.7809 69.7351 35.8814 70.6396 37.0799 71.3793L37.1067 71.6155L37.3072 71.914C36.924 72.6002 36.6879 73.3042 36.5943 74.0349L37.7928 74.9618C37.775 75.492 37.4586 75.5945 36.8393 75.2692C36.8037 75.4073 36.719 75.541 36.5987 75.6123C35.5027 76.2584 35.0171 76.9223 35.4537 78.2234C36.9017 82.5544 44.1195 84.5328 47.6705 81.7167L48.2943 81.4939C49.3502 81.2622 50.4151 81.0662 51.4888 80.9147C55.6101 79.6359 58.3636 77.4303 61.273 74.3469C61.4155 74.1954 61.5848 74.1018 61.8032 74.0884L62.1551 74.3379C62.3155 75.9955 62.6096 77.5639 63.6477 78.9051C63.5898 79.2037 63.3626 79.4398 62.966 79.6091C62.8546 79.8364 62.9037 79.8854 63.1131 79.7562C63.5051 78.4239 64.5433 79.6983 63.8527 80.5315C61.8522 82.3405 60.5824 85.5487 61.5314 88.1776C61.5982 88.6009 61.5982 89.1 61.0814 89.0554C60.9744 89.3317 60.1012 90.655 59.8918 90.8377C59.8428 90.8778 59.767 90.8867 59.6779 90.8823C58.4215 89.5322 57.0314 88.2177 55.4185 87.3132L55.0443 87.5939C52.7854 87.4424 50.5576 87.0548 48.3611 86.4354L46.3294 86.5958C46.423 86.783 46.3606 86.8944 46.1913 87.0013C45.9596 87.1483 43.6383 86.9924 43.5091 86.4399C44.8146 86.324 43.1705 86.1725 42.9968 86.2438C42.9834 86.2483 43.0859 86.3329 43.2195 86.4399L43.0636 86.7429C37.4809 88.0841 36.4829 93.7474 40.3235 97.7709L40.3146 98.2032C42.0076 99.7627 44.0037 100.975 46.2982 101.83C46.6057 102.289 46.3161 102.65 45.8705 102.837C46.1022 103.256 46.3918 103.421 46.7438 103.341C47.3364 102.53 47.9824 102.908 48.6864 104.477L49.5953 105.029C49.9116 105.221 50.1076 105.404 49.8982 105.756L49.5106 105.979C46.0354 105.386 39.8958 103.532 36.9819 101.625C35.4181 100.6 33.6314 99.3037 32.6156 97.762C32.5042 97.7442 32.4151 97.7219 32.4017 97.6774C32.179 96.9734 32.072 95.6767 32.326 95.0039C32.179 94.8034 32.0898 94.5806 32.0587 94.3355L32.4819 89.706C31.7156 92.8651 31.475 96.002 31.7557 99.1077C31.6755 99.727 30.6151 100.217 30.2943 99.6513C30.1027 99.4864 30.0582 99.531 30.1473 99.7983C30.1473 99.9142 30.125 100.088 30.0448 100.101C29.528 100.19 26.0082 100.569 25.7364 100.507L25.5002 100.239C25.3844 100.186 25.2864 100.128 25.2463 100.043C24.725 98.9963 25.1037 98.9606 25.2017 99.9053C25.2062 99.9632 25.1483 100.03 25.0681 100.097C25.2285 100.64 25.1572 100.707 24.6181 100.783C16.8077 101.478 8.96166 102.463 1.16019 103.528L0.376031 103.434C0.888406 89.9644 1.2092 76.4767 1.97553 63.0514L2.38989 62.8108C6.72503 62.6682 11.0646 62.0533 15.4042 60.9661C18.229 60.3289 20.9958 60.3334 23.8027 60.4804C28.0666 60.2977 29.9067 58.5243 32.6245 55.4231C34.6161 53.1551 36.425 50.544 38.1581 48.0265C41.62 42.5682 45.0997 37.2078 49.7646 32.712C52.3621 29.633 54.7903 26.4115 57.0448 23.0474L57.4146 22.8513C57.4235 22.0849 58.025 21.2606 58.6977 20.9041C58.4393 20.004 59.2591 19.153 59.9452 18.6539C59.9542 18.5024 59.9943 18.3554 60.0789 18.2306C61.665 15.878 62.7789 13.7258 63.367 10.9187C64.6858 10.4553 65.4878 9.73791 65.9779 8.36998L66.3254 8.28532L66.2987 8.27641Z" fill="var(--fill-0, #B47650)"/>
<path id="Vector_2" d="M1.95618 63.0368C2.03637 61.6466 2.66905 62.159 3.76954 62.0208C5.26211 61.8337 6.76359 61.6376 8.24725 61.4149C11.6378 60.9158 16.3784 59.6593 19.6042 59.5523C22.5804 59.4543 24.1844 60.1049 27.223 58.8929C29.9586 57.8012 33.015 53.6484 34.8373 51.2557C38.2546 46.7731 41.0304 41.6089 44.5145 37.2556C46.3903 34.9163 48.7026 32.8844 50.6051 30.5674C52.9977 27.6533 54.8511 24.3605 57.0833 21.3573C57.2927 21.0766 57.8185 20.7781 57.8407 20.738C57.9209 20.5954 57.8897 20.0696 58.0323 19.6908C58.3397 18.8888 59.7031 17.5654 60.2556 16.6876C62.7373 12.7532 62.8709 8.54691 63.8957 4.20697C64.3947 2.09938 64.4571 0.722547 66.8407 0.183396C75.0655 -1.67467 77.2174 11.0644 76.9011 16.7812C76.7318 19.8468 75.6179 24.1555 73.907 26.7176C73.359 27.533 73.4882 27.0072 73.1942 28.041C72.5481 30.3268 70.3962 33.076 69.2645 35.295C68.066 37.6521 66.7293 40.8469 66.5734 43.4981C66.462 45.4052 66.4665 45.5211 68.2932 46.0023C72.8377 47.2009 79.2937 46.078 84.0744 46.0379C91.5639 45.9755 102.137 45.7929 104.36 54.8114C105.358 58.8528 104.449 61.8292 101.001 64.1997C103.469 65.1354 105.211 67.5817 105.75 70.1259C106.436 73.3475 106.245 76.364 104.048 78.9395C102.992 80.1737 101.705 80.851 100.279 81.5595C106.655 86.4475 102.836 96.9542 95.0481 97.3196C97.7169 100.964 96.8303 104.574 93.5956 107.416C89.2204 111.266 86.3377 109.537 81.1783 109.961C79.6323 110.085 78.7546 110.727 77.4046 111.124C75.1367 111.796 71.9511 110.986 69.407 111.115C64.1184 111.382 59.7566 112.099 54.3299 111.391C47.2635 110.469 40.3621 106.971 33.3982 106.614C22.5626 106.057 11.62 109.84 1.12746 111.979C0.392317 112.037 0.142813 112.024 0.0581598 111.266L0.165089 110.847C8.55468 108.428 17.5324 106.164 26.323 105.353C33.9596 104.649 40.4423 106.155 47.6734 108.544C54.3655 110.754 61.1645 110.5 68.0348 109.774C70.3026 109.506 72.5036 109.765 74.7135 110.077C76.3531 110.032 77.9481 109.622 79.5031 108.847C78.1085 107.203 80.6793 107.933 81.0357 108.94L81.2006 108.651C82.3011 108.588 83.3659 108.731 84.4486 108.94C82.5818 108.749 80.7952 108.134 79.1155 107.309C77.4848 107.091 75.9387 106.574 74.4016 105.991C74.5932 106.521 75.4174 108.985 75.0744 109.332C74.4907 109.916 74.1566 108.931 74.0363 108.432C73.8669 107.483 73.6575 106.552 73.3991 105.634C68.957 103.535 61.6858 97.8944 66.4085 92.69C60.2333 90.6404 60.0061 81.4392 66.5467 79.6658C61.9888 76.6848 63.0269 69.413 67.7675 67.2029C62.1224 62.2837 66.8541 55.4797 73.1184 54.7535L73.1452 54.544C73.5105 54.4906 73.7645 54.4237 73.9204 54.0405C74.2278 52.4498 74.7759 50.9527 75.5645 49.5491L76.0278 49.3798L76.2551 49.6293L74.8739 54.0227C76.665 53.6217 78.4516 53.4345 80.2293 53.4613L81.6907 52.53C81.9536 50.614 82.7778 49.1748 84.159 48.2213C84.2169 46.9113 85.5847 48.5287 84.306 48.5109C84.4263 48.9832 84.3328 49.1793 84.0164 49.0901L84.0699 49.4065C83.6511 50.1194 83.3169 50.8725 83.0674 51.679C83.9362 51.2378 84.814 50.8413 85.7095 50.4848L86.0437 50.5427L86.155 50.1729C86.8189 49.7006 90.9446 48.2703 91.7065 48.404C92.4684 48.5376 92.9095 49.2862 92.2011 49.7674C88.2714 50.6987 84.0833 52.2671 80.9556 54.847C80.6838 54.9673 79.5476 55.0208 79.4986 54.6688L78.6343 54.7535L78.3313 55.0386C73.7912 55.1812 68.4402 56.9724 66.5778 61.4371C66.5422 61.6777 66.5511 62.2704 66.7249 62.0164C66.7115 60.497 67.2551 59.3696 68.8679 59.2271C69.6967 59.1558 71.3674 59.1469 71.8085 59.8375C72.3699 59.8375 72.5749 60.0959 72.8556 60.5282C73.1853 61.045 74.1432 64.8146 73.9962 65.2869C73.9605 65.4028 73.8179 65.4607 73.6976 65.5053C74.2679 65.8395 73.6308 66.6148 73.1229 66.8064C76.656 67.6351 80.2427 67.7554 83.7892 66.7885C88.2001 65.5008 92.6288 64.32 97.1422 63.7452C102.065 62.6981 104.057 60.9069 103.326 55.4797L102.939 55.0876C101.852 50.1328 97.209 48.0564 92.5575 47.6821L92.1431 47.3479C91.7912 47.4549 91.4303 47.5574 91.0605 47.5484C86.213 47.4237 81.4055 47.3568 76.5669 47.6509L76.0234 47.4905C75.4353 47.4816 74.8561 47.5306 74.2813 47.6376C73.8625 48.0653 73.2565 48.0609 72.8288 47.6376L71.0868 47.4905C70.9085 47.7356 70.5788 47.749 70.1066 47.5262C69.2422 47.6598 68.6006 47.5039 68.1818 47.0538C68.0615 47.3034 67.8343 47.3301 67.4957 47.1385C67.8387 47.7088 68.066 48.3059 68.1818 48.9431C68.3467 49.3174 68.1506 49.3842 67.8922 49.0901C67.46 49.1347 67.2239 48.7649 67.313 48.3638L66.9076 48.2658L65.8694 46.6216C65.9363 47.3346 65.8828 47.9628 65.7135 48.5064C66.0833 48.6713 66.0833 48.7782 65.7135 48.9431C65.6689 49.3308 65.5353 49.3129 65.4239 48.9431L65.1566 48.7292C65.0986 48.3638 64.9694 46.1003 65.0853 46.0067C65.1432 45.9622 65.21 45.9265 65.2813 45.8909C65.0184 45.1735 65.0897 44.3492 65.161 43.5872C65.2902 42.1837 65.6021 40.2766 66.4442 39.2072C66.1679 38.9354 66.2214 38.8775 66.5912 38.9176C66.2303 38.5878 66.5288 37.5006 67.0278 37.465C67.0011 37.3358 66.9788 37.2021 66.9788 37.0729C66.9788 36.1238 70.0531 30.9907 70.8061 29.7921L71.3808 29.3287C71.4966 29.1059 71.7506 28.9366 71.9244 28.4955C72.0358 28.2192 72.3967 27.2033 72.2407 27.0162C70.5075 26.6731 68.8769 25.9111 67.313 25.118C67.1214 24.9309 67.2016 24.8952 67.46 24.971C67.7585 25.1046 68.0749 25.1536 68.3333 25.2606L68.5872 25.1581C69.8704 25.6482 71.1625 26.1116 72.4635 26.5483C72.3922 26.272 72.6595 26.076 72.9803 26.1295L73.0204 25.5457C76.4155 19.6819 76.0323 12.0982 73.6397 5.93136L73.7065 5.36102L73.2254 5.00901C71.9467 2.1885 69.2734 0.415097 66.2392 1.78748C67.4378 3.11085 67.7942 4.47878 67.3085 5.90017L66.6402 8.17708L66.3016 8.2662C65.9764 9.09943 65.4417 10.1376 64.6576 10.6189C64.3991 10.7793 63.6061 11.011 63.566 11.0555C63.5081 11.1224 63.2363 12.4502 63.1427 12.7398C62.5947 14.3885 62.0868 15.6806 61.1868 17.1778C60.9863 17.512 60.2868 18.2561 60.2199 18.5502C60.1353 18.9334 60.5229 19.1027 60.4828 19.4591L59.9749 18.8799C59.6942 19.1695 58.6917 20.23 58.9056 20.5998C59.0259 20.8048 60.0685 21.0053 60.1932 21.3484C59.0348 21.3395 58.9056 20.6667 58.0947 21.794C57.863 22.1148 57.3373 22.9436 57.9388 22.948L59.1729 23.0906C58.6293 23.1753 57.6224 22.9079 57.217 23.2377C55.261 25.8354 53.5368 28.6336 51.4739 31.1467C49.411 33.6597 47.0051 35.8074 45.0269 38.3517C41.7833 42.5268 39.1903 47.2989 35.9957 51.5453C34.0576 54.1207 30.716 58.6745 27.7977 59.9088C24.3492 61.3658 22.4289 60.4435 19.1586 60.7108C15.4651 61.0138 11.17 62.2213 7.36953 62.7204C5.64082 62.9476 3.64924 63.2997 1.94281 63.0323L1.95618 63.0368Z" fill="var(--fill-0, #030202)"/>
<path id="Vector_3" d="M72.4005 54.6157C72.797 54.4776 73.0421 54.5266 73.1267 54.7627C69.6248 56.1396 65.9847 57.4273 65.5926 61.8252C65.3787 64.2001 66.6708 66.0537 68.4797 67.3993C63.7302 68.6871 62.3891 75.6292 65.9357 78.8819C66.3367 79.2517 66.8847 79.4255 67.1743 79.8934C60.3396 80.9895 60.3263 90.7744 66.8847 92.5345C66.9827 92.9221 66.5951 92.833 66.3723 93.1048C62.9505 97.2353 67.5173 101.642 70.85 103.897C71.3134 104.209 73.5456 105.336 73.6347 105.47C74.0802 106.134 74.0758 108.598 74.802 109.386C75.0025 108.103 74.2896 106.842 74.0045 105.612C74.147 105.501 76.9139 106.655 77.453 106.74C78.6559 106.927 79.1772 106.86 80.3624 107.608L84.4658 108.954H81.053C80.7099 108.954 79.7342 108.054 79.2396 108.085L80.1129 109.097C78.2282 109.328 77.0743 110.5 75.105 110.402C73.5366 110.326 72.1332 109.921 70.449 109.961C65 110.099 60.607 111.066 54.9307 110.384C47.3075 109.466 40.406 105.888 32.6892 105.465C23.9476 104.984 9.99764 108.402 1.35855 110.736C0.908547 110.857 0.454093 110.981 0.0798357 111.276C-0.183035 108.994 0.280329 105.799 0.369438 103.433C4.41943 102.912 8.46052 102.199 12.515 101.709C16.4625 101.232 20.4456 101.009 24.3932 100.51C24.6159 100.484 25.164 100.47 25.0615 100.091C25.1684 100.083 25.2531 100.087 25.2664 100.118C25.9704 101.589 25.81 102.426 25.36 100.386C25.3511 100.345 25.4135 100.292 25.4937 100.234L30.1407 99.7974C30.2298 100.1 30.2788 100.051 30.2877 99.6504C32.0521 99.5078 31.3303 98.8706 31.2991 97.6943C31.2055 94.4103 31.9184 91.2022 32.5021 87.9896L32.9031 87.74C32.9031 87.8603 32.912 87.9851 32.9075 88.1054C32.8229 90.4001 32.3684 92.7127 32.3194 95.003C32.0877 96.01 32.1456 97.0883 32.4842 98.2379C32.4441 98.0641 32.4931 97.9081 32.609 97.7655C34.1595 99.0488 35.612 100.484 37.354 101.517C40.2278 103.228 46.5501 105.162 49.8916 105.755C50.3595 105.398 51.5401 105.617 51.9233 106.044C54.8149 106.044 57.6708 106.093 60.4911 106.191C60.5891 105.804 60.7495 105.839 60.9278 106.191C61.801 105.568 62.7233 105.037 63.6857 104.592C63.503 104.235 64.8485 103.491 64.8263 104.177L64.6035 105.839C66.6842 105.568 68.756 105.572 70.8277 105.853C68.8317 104.427 67.0317 102.823 65.4188 101.032L65.4277 100.528C64.5678 100.185 64.1758 98.7057 63.9886 97.8012C63.6901 96.3754 63.8372 95.1634 64.1178 93.791C63.9396 93.3811 63.8461 93.0112 63.8327 92.6815C63.7302 92.5924 63.6322 92.4988 63.5431 92.3919C63.0263 92.6369 62.3758 91.719 62.0683 91.2868C61.5916 90.6051 61.3109 89.9367 61.2174 89.1971C61.0124 89.3753 60.9411 89.2996 61.0703 89.05C61.5381 88.2925 61.0124 87.9494 60.9278 87.0895C60.7228 84.9908 61.5649 82.7852 62.8169 81.1365C63.2891 80.5127 64.3495 80.1518 63.4674 79.3186C63.3292 79.4478 63.2357 79.6127 63.1065 79.7508C62.9015 79.9424 62.8258 79.8622 62.9594 79.6038C63.0797 79.4433 63.4094 79.1225 63.3827 78.971C62.8169 78.3472 62.4025 77.3402 62.1886 76.5203C61.9748 75.7005 62.0015 74.894 61.7921 74.083C61.7164 73.7399 61.8901 73.3612 62.3089 72.9379C62.2198 73.0582 62.0906 73.0938 61.9347 73.0671C61.8723 72.9914 61.8188 72.9156 61.7787 72.831C61.2931 71.7928 64.1802 67.5731 65.303 66.9538C63.0084 63.652 63.3203 59.7176 66.2565 56.8525C66.956 56.1708 68.1055 55.1058 69.0545 55.1994C68.903 54.7672 69.3753 54.5132 69.6337 54.9098C70.2352 54.4285 71.8168 54.1256 72.3916 54.6201L72.4005 54.6157Z" fill="var(--fill-0, #9D5D3A)"/>
<path id="Vector_4" d="M58.7506 37.9089C58.9467 37.7173 59.361 37.9847 59.4769 38.1986C60.9828 38.5862 62.511 38.858 64.066 39.014L64.2709 39.2145C64.6986 39.3437 65.1308 39.4284 65.5719 39.464C65.8793 39.7447 65.3491 41.6919 64.8501 41.7588C65.2779 41.6518 65.1843 44.0178 65.1219 44.1649C65.0684 44.2807 64.9704 44.3431 64.8501 44.3743H65.0417C65.0684 44.8956 65.1486 45.4036 65.2823 45.8982C65.2645 46.8473 65.5452 48.1484 65.4293 48.9504C65.8437 49.9084 65.0996 50.6703 64.2486 51.1827C63.7853 51.7263 63.6739 52.4616 63.5803 53.1567C63.3397 57.7684 61.7937 62.3801 60.1942 66.7335C59.7843 66.8404 59.7175 66.778 59.7665 66.3859C59.8645 65.2675 59.8021 65.3076 59.5704 66.5151L59.3298 66.8226C58.8308 67.6469 58.412 68.1727 57.5477 68.6361C57.0353 68.9123 55.6452 69.3178 55.262 68.8544C55.1328 68.6004 55.5694 67.2548 55.5427 67.3305L54.5358 70.7437L54.7229 71.0734C54.2105 72.8334 53.2259 75.1059 52.3883 76.7501C51.0784 79.3211 50.0759 80.4395 47.416 81.344C47.6789 81.393 47.9729 81.442 48.2893 81.491C46.0259 84.1823 40.8309 83.514 38.1353 81.843C36.4645 80.8048 33.7868 77.7393 35.6492 75.8946C36.1348 75.4089 36.9769 75.3732 36.3799 74.8118L37.6853 75.244L36.2908 74.1657C36.2596 73.1587 36.8076 72.5126 37.1061 71.617C37.6096 71.4922 38.5185 72.0358 38.9952 72.3433C39.0977 72.3433 39.1512 72.2943 39.1422 72.1962C38.1665 72.0269 37.2531 71.4967 36.42 70.9486C35.5868 70.4006 34.4507 69.5941 34.0586 68.7074L35.5111 64.4253C35.0923 63.9129 34.767 64.7774 34.4908 65.0001C34.1343 65.2809 33.4036 65.5438 33.2121 64.9823C32.9893 64.3273 33.0695 61.284 33.769 60.7226C34.1254 61.6717 34.5843 62.5717 35.1502 63.4183L35.2215 63.1911C35.6091 62.6698 35.9343 61.9613 36.322 61.4578C36.469 61.2662 36.8878 61.1771 36.9368 60.9231C36.9546 60.834 36.821 59.1809 36.7942 59.0784C36.5358 58.1828 35.3819 58.5571 35.0655 58.1828C34.5754 57.6124 36.9056 54.6226 37.8101 56.4673C38.0284 56.9129 37.9526 57.8887 38.0017 57.9466C38.0462 58.0001 39.1957 58.2363 39.3695 58.2496C41.4056 58.3922 40.1804 56.2312 40.1581 55.1172C40.1447 54.3553 40.9645 52.916 41.9046 53.1656C42.0828 52.9918 41.9447 52.9071 41.615 52.8759C41.6106 52.564 41.7977 52.4794 42.0026 52.319C42.916 51.5793 44.1101 51.1115 45.0903 50.4698C46.3868 49.6188 47.5898 48.6563 48.8774 47.7919L49.069 47.5869C49.7417 47.5513 49.8709 47.4755 49.4566 47.3552L49.167 47.1369C50.4858 46.0096 51.6531 44.753 52.3615 43.14C52.8516 42.9663 52.9497 42.8727 52.6511 42.8504L53.6982 39.1788C54.313 37.7218 55.6719 37.196 57.1912 37.5124C57.9531 37.6683 57.6323 37.8644 58.7506 37.9134V37.9089Z" fill="var(--fill-0, #C28763)"/>
<path id="Vector_5" d="M55.4097 87.2986C57.0181 88.2031 58.426 89.5621 59.6869 90.8097C59.8206 90.9434 60.0166 91.1618 60.1013 91.3667C60.1191 91.4157 59.5934 91.0504 59.9097 90.6271C60.2929 90.1191 60.7651 89.5889 61.2241 89.1878C61.2864 89.1789 61.4825 88.9873 61.5137 89.0408C61.5582 90.3241 62.5518 91.6162 63.5498 92.3826C63.6166 92.6901 63.7147 92.7881 63.8394 92.6723C64.8775 93.5189 64.2137 94.4234 64.1335 95.5061C63.9998 97.3107 64.4721 98.9995 65.4389 100.514C65.6929 102.996 64.4676 105.523 61.6651 103.669L61.1661 103.544C54.0107 104.199 45.8394 103.206 40.3102 98.1885C38.2028 95.8002 36.7013 92.6856 38.4434 89.5666C39.1964 88.2165 41.6691 86.4743 43.2152 86.4208C43.2998 86.2381 43.4112 86.247 43.5048 86.4208C43.9236 86.4386 44.7033 86.6837 45.1756 86.7104C45.5365 86.7327 45.9018 86.706 46.2627 86.7104L45.3939 86.2782C46.4454 86.3896 47.4657 86.0554 48.5127 86.1356C49.631 86.2203 50.8072 86.7461 51.8944 86.9644C53.1731 87.2228 54.1711 87.2674 55.4142 87.2941L55.4097 87.2986Z" fill="var(--fill-0, #C28664)"/>
<path id="Vector_6" d="M73.7126 5.37186C76.3725 11.249 76.7779 20.6641 72.9863 26.1447L72.7324 26.3675C71.4225 25.8061 70.224 25.4452 68.825 25.1912L68.7715 24.9773C67.3725 24.6164 67.1408 24.5496 66.1428 23.6094C65.8666 23.3465 65.4923 23.5871 65.421 22.8742C65.323 21.934 65.8888 21.2968 66.1161 20.5082C66.9002 17.7946 67.9963 13.9626 68.0453 11.1778C67.974 7.94731 69.5245 1.98101 73.7081 5.36741L73.7126 5.37186Z" fill="var(--fill-0, #C28561)"/>
<path id="Vector_7" d="M71.3842 29.3359C69.9674 32.045 68.1808 34.6338 67.0268 37.4722C66.7728 37.6014 66.51 37.7306 66.2204 37.7484C65.0753 37.8197 61.3818 37.9935 60.5932 37.6816C60.455 37.6281 60.3258 37.5524 60.1966 37.4722C58.8377 37.4142 57.5635 37.5925 57.5724 35.8012C57.5768 33.8853 60.6644 30.383 61.7694 28.6586C62.1615 28.0482 63.6407 25.094 63.9748 24.9068C65.6768 23.9667 67.2228 27.4333 68.5773 27.9992L71.3842 29.3359Z" fill="var(--fill-0, #C28763)"/>
<path id="Vector_8" d="M65.4275 100.512C66.8889 102.807 69.4552 104.09 71.3087 105.89C71.4513 106.028 71.5849 106.082 71.527 106.322C69.072 105.863 66.7374 105.73 64.2646 106.18L64.5542 104.001C64.4384 103.876 63.8191 104.464 63.6854 104.58C62.7186 105.026 61.8008 105.56 60.9275 106.18C60.7938 106.198 60.6334 106.18 60.4909 106.18C59.8582 106.278 56.7973 106.282 57.528 105.177C57.7552 105.151 58.1295 104.848 57.9156 104.754C57.8532 104.727 56.7438 104.438 56.628 104.429C56.2493 104.393 54.1775 104.834 53.9236 105.061C54.4627 105.418 54.5562 105.725 54.2087 105.984L51.9231 106.033C51.228 106.024 50.5642 105.863 49.8914 105.743C49.6463 105.213 48.8755 105.035 48.5236 104.714C48.2028 104.424 47.6681 103.185 47.481 103.141C47.1246 103.061 47.0043 103.506 46.884 103.569C46.6835 103.671 46.4874 103.569 46.2736 103.64C45.9528 103.751 45.6364 104.246 44.9548 103.996C44.8746 103.333 45.8637 103.649 45.9706 103.56C46.0642 103.217 45.4805 103.052 45.5384 102.776C45.6052 102.459 46.3493 102.486 46.0864 101.982C44.5003 100.98 41.7379 100.022 40.5082 98.6272C40.3567 98.4534 40.3389 98.2217 40.3033 98.1816C40.8602 98.6139 41.3949 99.0951 42.0008 99.4604C47.53 102.793 52.8498 103.537 59.2656 103.417C59.9339 103.404 60.5933 103.159 61.2973 103.257C62.5181 103.431 63.7523 105.159 64.777 103.119C65.2493 102.183 64.9329 101.31 65.4275 100.503V100.512Z" fill="var(--fill-0, #B57751)"/>
<path id="Vector_9" d="M73.7093 5.3697C72.885 5.30732 72.5286 4.6746 71.5885 4.65677C68.7281 4.61222 68.6167 9.2195 68.0464 11.18C68.0464 10.9573 68.0464 10.4805 68.0152 10.28C67.9217 9.63389 67.7925 8.62243 66.9905 8.84967L66.3044 8.27042C66.5405 7.66889 67.3336 4.9464 67.3113 4.43398C67.2712 3.44926 66.086 2.52245 65.8677 1.59119C69.7172 0.0316646 72.1633 1.9432 73.7093 5.36524V5.3697Z" fill="var(--fill-0, #B77851)"/>
<path id="Vector_10" d="M22.5794 86.567L10.3804 88.0196L17.5225 86.0858C19.0373 85.7427 20.5656 85.4575 22.0804 85.1189C22.4547 85.0342 22.4814 85.257 22.4324 84.6777C22.7398 85.0966 22.771 86.0724 22.5794 86.567Z" fill="var(--fill-0, #9F5E3B)"/>
<path id="Vector_11" d="M67.027 37.4732C66.8532 37.9054 66.7463 38.4713 66.5904 38.9257C66.5369 38.9881 66.479 39.0416 66.4255 39.0416C64.2914 39.0772 61.8186 39.0416 59.9117 38.0524C60.1122 37.8163 59.778 37.6113 60.2013 37.4732C62.4646 37.5712 64.7592 37.4019 67.027 37.4732Z" fill="var(--fill-0, #9E5D39)"/>
<path id="Vector_12" d="M61.7992 74.0734C59.2819 77.3128 55.4413 79.8571 51.4849 80.8997C51.2666 80.9264 51.1685 80.8819 51.1953 80.7527L51.7166 80.2982C55.6062 79.1085 58.8854 76.5776 61.3448 73.3694L61.9462 73.0531C62.7616 71.9391 63.3141 71.1415 63.9467 69.8939C64.1027 69.582 64.1784 69.5776 64.1205 69.9251C64.0759 70.1969 63.6705 71.0702 63.519 71.3599C63.1403 72.0862 62.2982 73.4363 61.8037 74.0734H61.7992Z" fill="var(--fill-0, #120E0B)"/>
<path id="Vector_13" d="M22.7283 83.6627L22.8753 84.9682L23.3788 84.8167H25.7803C25.9942 85.1375 26.0432 85.5742 25.9273 86.1267L22.8753 86.5634C22.5902 85.6232 22.5011 84.6162 22.7283 83.6582V83.6627Z" fill="var(--fill-0, #9A5A38)"/>
<path id="Vector_14" d="M32.608 97.7528C32.7951 98.7108 33.0313 99.6332 33.3699 100.547C33.7976 101.71 34.76 103.069 35.0763 104.071C35.0986 104.147 35.1164 104.307 35.005 104.285C33.0937 102.164 32.1446 98.9158 32.0199 96.0864C32.0065 95.7388 31.9041 95.1462 32.3184 94.9902C32.2961 96.1354 32.3986 96.6701 32.608 97.7484V97.7528Z" fill="var(--fill-0, #0F0A07)"/>
<path id="Vector_15" d="M68.7677 24.9805C69.3781 25.1364 70.2692 25.1498 70.8395 25.3057C71.5702 25.5063 72.2206 26.0543 72.9825 26.1434C72.831 26.3618 72.7107 26.5979 72.5459 26.8073C71.0979 26.5756 69.6989 25.8538 68.3355 25.2701C68.3979 25.0607 68.5583 24.9805 68.7721 24.9805H68.7677Z" fill="var(--fill-0, #A86542)"/>
<path id="Vector_16" d="M49.4501 47.3495C50.4926 47.2425 51.5397 46.9752 52.5689 46.9083C53.8209 46.8281 55.0327 47.1267 56.2803 47.0598C56.3204 47.091 56.2045 47.2425 56.1377 47.2782C55.9595 47.3673 53.3218 47.1579 52.7248 47.2069C51.4951 47.3004 50.1585 47.6703 48.8753 47.7861C47.8907 47.8752 46.8837 47.9198 45.8902 47.9376L43.355 47.6435C44.4867 47.5945 45.6407 47.7015 46.7724 47.648C47.6501 47.6079 48.608 47.4386 49.4545 47.3495H49.4501Z" fill="var(--fill-0, #2B1E14)"/>
<path id="Vector_17" d="M22.7276 83.6667C22.7677 84.638 22.8211 85.6049 22.8746 86.5718C22.8924 86.906 23.1508 89.6241 22.9459 89.6241C22.8478 88.6126 22.6607 87.5833 22.5805 86.5718C22.5315 85.9569 22.4691 85.2574 22.4335 84.6826C22.2731 82.0314 22.2865 79.3579 22.2909 76.6934C22.5092 76.7602 22.5627 77.4419 22.5761 77.638C22.7231 79.5362 22.6429 81.715 22.7231 83.6622L22.7276 83.6667Z" fill="var(--fill-0, #321F12)"/>
<path id="Vector_18" d="M26.0668 84.9707L29.8406 85.1177C29.9074 85.5321 29.7559 85.3584 29.5064 85.4296C28.4817 85.7104 27.2653 85.8039 26.2094 85.9911V88.825C26.2094 89.0968 26.5168 89.774 26.352 90.2063C26.1381 90.2196 26.098 89.6849 26.0802 89.5379C25.9911 88.6913 25.9198 87.5729 25.9153 86.7218C25.8886 86.0802 25.9376 85.5009 26.0624 84.9796L26.0668 84.9707Z" fill="var(--fill-0, #9E5E39)"/>
<path id="Vector_19" d="M34.0569 68.7043C35.5228 70.1613 37.2203 71.3911 39.1406 72.1887C39.3322 72.3848 39.2564 72.3759 38.9936 72.3358C38.4233 72.1085 37.6302 71.8902 37.1045 71.6095C35.0639 70.5089 32.2792 67.7775 31.406 65.612C31.3525 65.4783 31.1342 65.055 31.4372 65.0728C31.9362 66.5209 33.001 67.6572 34.0525 68.7043H34.0569Z" fill="var(--fill-0, #19130D)"/>
<path id="Vector_20" d="M29.9901 75.2415C30.7966 78.8774 33.1847 82.1257 32.8951 85.9888L32.2446 82.647C31.4515 80.2453 30.3733 78.0174 29.8476 75.5311C29.8253 75.3217 29.8743 75.2281 29.9946 75.2415H29.9901Z" fill="var(--fill-0, #1B1410)"/>
<path id="Vector_21" d="M61.0716 89.0405C61.134 89.0628 61.2053 89.1875 61.2186 89.1875C60.7063 90.2168 59.2493 90.5555 60.4924 91.656C60.1627 91.7674 59.8152 91.0768 59.6949 91.0768C59.5211 91.0768 58.6033 92.4403 58.1711 92.3823C58.3181 92.066 59.5434 91.0768 59.4142 90.7872C58.2157 89.4638 56.8167 88.3899 55.4087 87.3027C56.3043 87.3206 58.9642 89.9227 59.6949 90.6401C59.8107 90.6401 60.9424 89.2588 61.0761 89.0449L61.0716 89.0405Z" fill="var(--fill-0, #33251C)"/>
<path id="Vector_22" d="M15.178 81.0469L12.9325 81.9202C10.4285 82.6376 7.89781 83.3372 5.30474 83.658L15.1824 81.0469H15.178Z" fill="var(--fill-0, #332018)"/>
<path id="Vector_23" d="M63.1058 79.7442C61.9474 80.9695 61.0741 81.9498 59.6083 82.8543C58.3563 83.6296 56.8459 84.3603 55.4068 84.6812L58.8464 82.9657C60.281 82.0032 61.9028 80.9873 62.9632 79.6016L63.1102 79.7486L63.1058 79.7442Z" fill="var(--fill-0, #271B15)"/>
<path id="Vector_24" d="M59.9138 38.0562C61.0544 38.4171 62.0881 38.7067 63.3222 38.7869C64.4049 38.8582 65.541 38.6176 66.597 38.9251C66.5524 39.0543 66.4678 39.1612 66.4499 39.2147C65.9732 39.5355 64.8504 39.4464 64.2712 39.2147C62.6138 39.188 61.0366 38.6889 59.4772 38.1988C59.2856 38.0072 59.3613 37.9893 59.6242 38.0517C59.6999 38.0785 59.8336 38.025 59.9138 38.0517V38.0562Z" fill="var(--fill-0, #26170E)"/>
<path id="Vector_25" d="M35.2202 63.1848C36.0578 64.3789 37.0647 65.4617 38.5618 65.8003C38.388 66.1479 37.5325 65.6577 37.3009 65.533C35.434 64.5571 34.1954 62.757 33.7677 60.7118C33.7142 60.4444 33.4157 59.687 33.7677 59.5488C33.8301 60.8856 34.4672 62.102 35.2202 63.1803V63.1848Z" fill="var(--fill-0, #332319)"/>
<path id="Vector_26" d="M25.4846 100.227C25.6049 100.623 25.7609 101.131 25.8544 101.528C25.8901 101.675 26.046 102.004 25.7742 101.969C25.6673 101.309 25.2529 100.686 25.048 100.08C24.5044 98.4755 23.7693 95.6906 23.6133 94.0331C23.6 93.8726 23.4797 93.5117 23.7381 93.5429C23.9698 95.8599 24.8163 98.0254 25.4846 100.222V100.227Z" fill="var(--fill-0, #402A1D)"/>
<path id="Vector_27" d="M26.0708 84.9719C26.0797 85.5779 25.9238 86.2952 25.9238 86.7141C25.9238 86.5225 25.9238 86.3264 25.9238 86.1348C25.9238 85.618 25.7946 85.1768 25.7767 84.8293C25.6698 82.7306 25.6921 80.1819 25.7767 78.0743C25.7856 77.8961 25.6653 77.5352 25.9193 77.5664C25.8346 80.0482 26.0262 82.5078 26.0663 84.9719H26.0708Z" fill="var(--fill-0, #4F301E)"/>
<path id="Vector_28" d="M41.6068 52.8692C43.7766 53.0742 45.9597 53.0118 48.1429 53.0163C48.1785 53.2702 47.8132 53.1544 47.635 53.1588C45.728 53.2391 43.8033 53.1009 41.8964 53.1588L40.3013 52.8648C40.5018 52.5172 41.2637 52.8336 41.6068 52.8648V52.8692Z" fill="var(--fill-0, #3E2B1F)"/>
<path id="Vector_29" d="M52.6483 42.8454C52.9334 42.8231 53.2319 42.8588 53.5171 42.8454V42.988C53.1295 43.0281 52.7418 43.0816 52.3542 43.135C51.1245 43.3044 49.877 43.3712 48.6473 43.5672L47.2706 43.4247C48.9414 43.2464 50.6211 43.1484 52.2918 42.9925C52.479 42.9746 52.6171 42.841 52.6438 42.841L52.6483 42.8454Z" fill="var(--fill-0, #5C3B28)"/>
<path id="Vector_30" d="M43.2083 86.425C41.8227 86.0373 40.4861 85.5249 39.243 84.7986C39.0781 84.705 38.5747 84.4778 38.6326 84.2461C40.3524 85.1283 42.1168 86.1086 44.0771 86.2824L43.4979 86.425C43.3999 86.425 43.3019 86.425 43.2083 86.425Z" fill="var(--fill-0, #30211A)"/>
<path id="Vector_31" d="M30.277 99.6437L31.2928 102.839C31.0745 102.803 30.972 102.344 30.8963 102.148C30.6022 101.399 30.3393 100.566 30.1344 99.7863C29.9473 99.0823 29.7958 98.3337 29.7022 97.6074L30.2814 99.6393L30.277 99.6437Z" fill="var(--fill-0, #653B23)"/>
<path id="Vector_32" d="M51.1983 80.7604L51.4879 80.9074C50.3562 81.206 49.4963 81.451 48.2934 81.4867C47.9547 81.4956 47.6161 81.4822 47.2775 81.4867C47.2552 81.3218 47.4201 81.353 47.4245 81.3441C48.3067 81.05 49.7815 80.6579 50.7216 80.5911C50.8953 80.5777 51.0602 80.6757 51.2028 80.7648L51.1983 80.7604Z" fill="var(--fill-0, #543828)"/>
<path id="Vector_33" d="M71.3856 28.0235C70.1425 27.7739 68.7836 27.1858 67.9014 26.2813L71.3856 28.0235Z" fill="var(--fill-0, #2A1C14)"/>
<path id="Vector_34" d="M29.99 75.245L29.843 75.5346C29.6247 74.4875 29.3618 73.4271 29.4108 72.3398L29.99 75.245Z" fill="var(--fill-0, #583827)"/>
<path id="Vector_35" d="M17.3556 75.0955C17.5383 74.2801 17.6586 73.438 17.8635 72.627C17.9081 72.4622 17.8546 72.1547 18.0774 72.1903C18.0417 72.9389 17.8902 73.8969 17.663 74.6098C17.6006 74.8014 17.614 75.051 17.3511 75.0955H17.3556Z" fill="var(--fill-0, #70452D)"/>
<path id="Vector_36" d="M67.4658 24.9757L67.3187 25.1228C66.842 24.8822 66.2004 24.6817 65.8663 24.2539C66.4455 24.3074 67.0024 24.7708 67.4658 24.9802V24.9757Z" fill="var(--fill-0, #603D28)"/>
<path id="Vector_37" d="M35.3631 73.7882C34.9843 73.7392 34.5343 73.3828 34.3472 73.0664C34.7259 73.1154 35.1759 73.4719 35.3631 73.7882Z" fill="var(--fill-0, #4D3123)"/>
<path id="Vector_38" d="M59.6161 38.0511L59.4691 38.1982C59.2285 38.1224 59.0503 37.9219 58.7428 37.9086C58.324 37.2224 59.2819 37.9397 59.6161 38.0556V38.0511Z" fill="var(--fill-0, #9E5D39)"/>
<path id="Vector_39" d="M102.902 66.9588C103.481 67.2039 103.664 67.9257 103.918 68.4114L103.798 68.7589C104.426 70.6259 104.555 72.738 104.484 74.7163C104.715 74.7297 104.782 74.85 104.787 75.0906C104.653 75.6387 104.586 75.8793 104.35 76.3962L103.847 76.8373C102.581 79.3192 100.198 80.0321 97.56 80.3395C91.808 80.7896 86.0649 81.2218 80.3308 81.6451C78.4506 81.7565 74.8818 81.3822 73.5051 80.0321C71.3442 77.9156 71.5046 70.8888 74.9486 69.7971C81.7744 68.8258 88.658 67.6093 95.2253 65.8449C97.8496 65.2834 100.804 65.1007 102.902 66.9543V66.9588Z" fill="var(--fill-0, #B3754F)"/>
<path id="Vector_40" d="M103.337 55.4844L103.435 58.452C103.32 61.7225 99.9156 62.8098 97.2335 63.5093C92.4884 64.2846 87.8993 65.4966 83.23 66.771C82.1384 67.0339 80.383 67.3146 80.2449 65.9422C80.0444 65.862 80.0176 65.8531 80.0978 66.0892C80.5523 66.3343 80.9266 66.7843 80.0622 66.8423C79.1087 66.9046 74.8672 66.2095 74.1186 65.7951C73.9716 65.7149 73.838 65.6169 73.7087 65.51C73.8023 64.6946 72.9602 61.0675 72.4701 60.4304C72.283 60.1853 71.9578 60.1274 71.8196 59.8422C71.7261 59.4546 72.1404 59.4189 72.4701 59.4278C73.6107 59.7932 74.0652 59.2852 74.1766 58.1535L74.3771 57.8237C75.9944 57.2489 77.487 56.4514 78.8548 55.4354C79.2379 55.2305 79.1711 55.0032 78.6454 54.7582C79.2691 54.3839 80.2181 54.776 80.8686 54.5844C81.1404 54.5042 81.4256 54.014 81.7063 53.8269C84.0721 52.2629 87.583 50.7569 90.3008 49.9281C90.6795 49.8122 91.9671 49.6162 92.1231 49.4959C92.5597 49.1572 92.0518 48.6225 91.3968 48.6849C89.882 48.832 87.4716 49.8969 86.0548 50.543C85.6716 50.3959 83.9518 49.683 83.8939 49.4023L84.0231 49.0904C84.1077 48.9478 84.1835 48.7339 84.3127 48.5111L84.6513 48.5824C84.9142 49.4513 86.0681 49.3756 86.7899 49.2062C88.4251 48.6626 90.0513 48.1502 91.6642 47.6779C91.7533 47.4462 91.9181 47.3393 92.1543 47.3482C97.5943 47.8561 102.117 49.7187 103.337 55.4844Z" fill="var(--fill-0, #B3764F)"/>
<path id="Vector_41" d="M101.16 84.0989C102.497 85.4223 102.524 88.0556 102.176 89.7622C101.619 91.6069 100.773 92.3599 99.1912 93.3358C97.0704 94.6458 95.5199 95.4122 92.9981 95.3988C89.3135 95.3765 84.6664 94.8374 80.9773 94.3249C78.4912 93.9818 76.5932 93.71 74.2719 92.7253C70.8412 91.2772 71.2066 85.3599 73.7372 83.2345C80.8704 83.5419 87.9055 83.23 94.8471 82.2988C97.0526 82.1428 99.7748 82.0403 101.16 84.09V84.0989Z" fill="var(--fill-0, #B3754F)"/>
<path id="Vector_42" d="M77.9197 96.451C77.893 96.5802 77.942 96.6292 78.0667 96.598C77.9776 96.2193 78.2539 96.0811 78.8999 96.1836C82.8029 96.9144 86.6924 97.5114 90.7202 97.4892C92.4088 97.3911 93.7588 97.8679 94.7746 98.9239C95.6122 100.613 95.8395 102.079 95.0642 103.861C93.1618 105.518 90.6088 107.568 87.9311 107.082C85.9127 106.378 83.8365 105.973 81.7157 105.63C78.9934 105.091 73.9365 103.901 75.291 100.158C75.3845 98.5229 74.4355 98.9239 73.4242 99.5656C73.3128 101.459 70.2608 99.2492 70.1182 98.7591L70.2252 98.3402C70.5058 97.7966 70.8667 96.6515 71.0984 96.0143L71.339 95.6623C71.4816 95.5955 73.6558 95.8717 73.6425 96.3039C73.7806 95.8227 75.594 95.8583 75.8212 96.3039C76.0841 95.8494 77.7236 95.9653 77.9286 96.451H77.9197Z" fill="var(--fill-0, #B3754F)"/>
<path id="Vector_43" d="M65.7215 48.9453C66.2784 49.5602 66.1403 51.8594 65.2982 50.9326C65.0621 51.699 64.8304 53.058 65.9799 52.8798C66.3007 53.4679 66.8621 53.8645 67.526 54.221L69.0542 54.8448V55.1968C65.9265 56.8677 63.6898 59.6303 64.1354 63.3865C64.2913 64.701 65.0621 65.8194 65.5567 67.0046C63.8369 68.7112 62.3265 70.5915 61.9388 73.0645C59.2478 76.7405 55.67 79.5521 51.1923 80.7641C49.9715 81.0938 48.6839 81.3701 47.4141 81.3434C47.8196 80.5057 48.9913 80.47 49.7309 79.9532C51.776 78.5228 53.6339 73.1269 54.5339 70.7386C54.6988 70.0479 54.9394 69.4197 55.2601 68.8493C56.423 68.6889 57.2027 68.6666 58.1517 67.8913C58.6062 67.517 58.771 66.9556 59.328 66.813C59.4349 66.7818 59.5819 66.6393 59.7646 66.3764L60.0676 66.5813C61.1502 62.9632 62.4735 59.412 63.0661 55.6602C63.2799 54.3101 63.1195 51.953 64.0463 50.9727C64.318 50.6831 64.9552 50.5048 65.071 50.2553C65.0978 50.1929 65.4185 49.0567 65.4319 48.9453H65.7215Z" fill="var(--fill-0, #B67851)"/>
<path id="Vector_44" d="M101.158 84.0983C98.4539 81.4249 93.4949 82.8819 90.1756 83.2072C84.7311 83.7419 79.2509 83.4344 73.7841 83.5191C73.3074 83.6127 72.5989 85.2969 72.4385 85.8049C71.9173 87.4714 71.993 89.5077 72.7237 91.1073C73.1113 91.9628 74.0871 92.3282 74.9158 92.6891C77.6559 93.8832 81.7771 94.0927 84.8202 94.4046C87.3153 94.663 92.9068 95.4339 95.09 94.9482C96.5024 94.6318 99.9776 92.7381 100.94 91.6509C101.479 91.0449 101.693 90.3765 102.174 89.7616C101.145 94.8457 97.3088 96.4453 92.5103 96.3027C86.745 96.1334 80.8059 95.3314 75.1564 94.1951C71.4361 93.4466 67.2168 92.4574 64.2673 89.9755C64.2405 89.5923 64.3296 89.8285 64.5168 89.873C66.0806 90.2473 67.3014 90.9736 67.7158 88.924C67.9341 87.8278 68.2593 85.8361 68.3306 84.7489C68.5088 82.1066 67.1499 82.2536 64.9311 82.0576C64.7574 82.0843 64.8777 82.3071 64.8465 82.3561C65.0514 82.5611 64.9623 82.6457 64.6995 82.5032C64.7173 82.2626 64.0757 82.6725 64.2628 82.2893C64.4633 81.8793 66.1252 81.0105 66.6153 80.8634C69.0168 80.1416 69.3376 81.0238 71.2801 81.8036C72.8618 82.4408 74.8267 82.8463 76.5286 82.9443C83.791 83.3676 91.2271 82.0531 98.4761 81.768C99.5855 82.1512 100.65 83.0111 101.158 84.0983Z" fill="var(--fill-0, #9E5E3C)"/>
<path id="Vector_45" d="M102.902 66.961C101.989 66.5778 100.732 65.9584 99.7389 65.8381C96.4419 65.4416 93.6617 66.6491 90.5562 67.3264C85.4147 68.4448 80.233 69.3537 75.0157 70.0845C71.9102 71.1004 71.7632 77.2851 73.5008 79.5887C74.735 81.224 78.8384 81.4423 80.7587 81.3487C86.6043 80.5467 93.1047 80.8408 98.8701 79.8516C100.407 79.5887 101.873 78.9783 102.907 77.7841C103.375 77.2405 103.579 76.2736 104.355 76.4028C102.72 80.0165 99.9127 80.6893 96.2904 81.0502C90.3246 81.6473 82.4251 82.4582 76.5305 82.075C72.9617 81.8433 69.6647 80.3061 66.733 78.3634C67.2588 78.301 67.7132 78.6396 68.2568 78.5951C69.4063 78.5015 68.6756 77.2049 68.6221 76.4741C68.5018 74.919 69.2236 72.0094 68.7513 70.8242C68.3637 69.8573 67.2855 69.9196 66.4434 69.6478C69.5979 66.3907 74.0399 68.4938 77.8449 68.7032C82.8528 68.9795 87.7226 66.6803 92.5612 65.7C94.7176 65.2633 96.9141 65.1074 99.0661 64.6484C100.603 64.8311 101.976 65.7579 102.902 66.961Z" fill="var(--fill-0, #9D5D3B)"/>
<path id="Vector_46" d="M70.2206 98.3341C70.2562 98.7841 72.2389 100.059 72.484 100.081C73.0364 100.13 72.9518 99.6486 73.2102 99.3589C73.5443 98.9802 74.9567 98.499 75.2909 98.7841C75.3443 98.8287 75.5805 100.036 75.576 100.157C75.5537 100.705 75.1305 100.892 75.3755 101.823C76.1909 104.96 82.8206 105.392 85.5339 106.043C87.031 106.404 88.1493 107.179 89.7666 106.764C91.3839 106.35 93.028 105.125 94.4047 104.14C94.6186 103.989 94.7166 103.779 95.0597 103.85C94.173 105.891 91.1567 108.333 88.9646 108.868C88.5725 108.961 87.3295 109.184 87.0131 109.09C86.8483 109.041 87.0042 108.698 86.6834 108.525C86.3626 108.351 85.3423 108.297 84.8612 108.168C83.5334 107.803 81.3904 107.277 80.2008 106.724C79.675 106.479 79.1716 105.896 78.6503 105.793C78.2805 105.722 77.9998 105.913 77.5943 105.855C77.2156 105.806 75.8433 105.316 75.3755 105.156C71.7443 103.935 68.5765 101.413 66.4468 98.2539L69.1335 99.203C69.677 99.2253 70.0023 98.7485 70.2206 98.3252V98.3341Z" fill="var(--fill-0, #9C5C3A)"/>
<path id="Vector_47" d="M71.0973 47.49L72.8393 47.637C73.3205 47.637 73.8106 47.6548 74.2918 47.637C74.8666 47.5301 75.4458 47.481 76.0339 47.49C81.3359 47.1513 86.8562 46.8528 92.1581 47.3429C91.8507 48.3722 91.1245 48.0692 90.4071 48.2786C89.2175 48.6306 87.9032 49.3703 86.6958 49.504C85.4883 49.6376 84.7309 49.7357 84.3165 48.5014C84.4413 48.2875 84.6596 48.1717 84.6062 47.9222C84.5883 47.8999 84.223 48.1628 84.174 48.2118L83.7195 48.4479C81.6923 50.56 78.1636 51.6561 76.3324 48.791C76.0784 49.0584 75.82 49.3035 75.4591 49.0807C75.1339 49.4639 74.0468 48.8311 74.078 48.3544C74.0022 48.7732 72.1443 48.7376 71.8101 48.644L71.6052 48.3544C71.5829 48.4925 71.5072 48.5816 71.3735 48.6128C70.7007 48.0781 70.028 47.8687 69.3552 47.9935C69.0255 48.9648 67.475 47.5434 68.1968 47.0488C69.2794 47.2984 69.979 47.4365 71.1017 47.4855L71.0973 47.49Z" fill="var(--fill-0, #BD825D)"/>
<path id="Vector_48" d="M68.1892 47.0555C68.1358 47.608 68.6927 47.862 68.9912 48.2185L69.0625 47.6392C69.4056 47.8219 69.8689 47.5991 70.1407 47.6481C70.5462 47.7194 71.1343 48.3655 71.6066 48.3655H74.0749C74.1996 48.3655 75.1798 49.0383 75.456 49.0918C75.5362 49.1854 75.6031 49.3057 75.5496 49.4082C74.6986 51.0613 74.262 52.3178 73.8788 54.1625C73.5402 54.51 73.0457 54.6615 72.4041 54.6125C71.807 54.6303 70.2788 54.813 69.6462 54.9022L69.5526 54.5724C70.1363 53.8417 69.8333 52.8926 69.4635 52.1396L69.6462 51.8544C69.2853 50.8697 68.7773 49.9607 68.1135 49.1274L68.1937 48.9492C67.7481 48.2318 67.307 47.5055 66.8882 46.7703C67.3561 46.7124 67.7793 46.9619 68.1937 47.06L68.1892 47.0555Z" fill="var(--fill-0, #B67851)"/>
<path id="Vector_49" d="M103.339 55.4824C105.224 64.3762 97.5919 63.6944 91.6929 64.9688C86.3687 66.1184 82.2207 68.2705 76.5444 67.6824C74.4905 67.4685 72.4722 66.7422 70.3692 66.9561C70.4449 66.76 71.1266 66.7066 71.3316 66.6843C72.3964 66.5684 73.5459 66.9338 73.7108 65.5035C75.9563 65.9758 78.2954 66.3679 80.5365 66.5952C80.3583 66.4481 80.2246 66.2788 80.0999 66.0872C79.9929 65.851 80.0152 65.8065 80.2469 65.9402C80.434 66.212 80.7281 66.5996 81.0489 66.662C81.3964 66.7288 82.7598 66.5461 83.183 66.4793C85.5043 66.105 88.0439 65.0891 90.383 64.5277C93.9073 63.6811 101.883 63.3202 103.081 59.3634C103.495 57.9999 103.068 56.8058 103.339 55.4824Z" fill="var(--fill-0, #9B5B38)"/>
<path id="Vector_50" d="M78.6496 54.7552C78.9392 54.7641 79.2333 54.7463 79.5184 54.7552C79.5585 54.9824 79.4961 55.0894 79.3803 55.2676C78.8501 56.083 76.863 57.041 75.9407 57.491C75.5976 57.6559 74.7645 57.8297 74.5818 58.0168C74.2343 58.3777 74.5283 59.162 73.8511 59.6075C73.1739 60.0531 72.9467 59.7056 72.3407 59.7011C72.167 59.7011 71.9442 59.8437 71.8239 59.8348C71.3382 59.7991 70.9016 59.5763 70.4427 59.5452C68.1526 59.3981 67.11 59.4649 66.7402 62.0137C66.5041 62.0716 66.5531 61.6527 66.5932 61.4344C67.4798 56.8539 74.5684 54.6304 78.6496 54.7507V54.7552Z" fill="var(--fill-0, #C08561)"/>
<path id="Vector_51" d="M84.1683 48.2231C83.7628 48.6152 82.8361 49.9698 82.5866 50.4911C82.3549 50.9857 82.052 52.5541 81.9539 52.6922C81.896 52.7725 80.4079 53.7215 80.3143 53.7394C79.851 53.8285 79.2272 53.6903 78.7193 53.7438C77.2846 53.8909 75.8411 54.1627 74.4332 54.4701L76.0282 49.3861C75.7742 49.0697 75.9614 48.9004 76.3178 48.8068C77.0396 48.8424 76.8168 49.1454 77.0931 49.3415C77.3203 49.5019 78.2025 50.0856 78.394 50.148C79.6995 50.5802 81.3391 49.8717 82.444 49.19C82.9386 48.887 83.6203 47.978 84.1683 48.2231Z" fill="var(--fill-0, #B2734D)"/>
<path id="Vector_52" d="M73.1271 65.5055L72.7796 65.7238C71.1355 65.7595 69.5583 65.6347 68.0434 65.3584C67.0365 64.0172 66.7246 62.2349 67.5444 60.72C67.8162 60.2164 68.0791 59.8333 68.6939 59.8243C69.1618 59.8199 70.5207 59.9402 70.984 60.0204C71.4028 60.0917 71.9375 60.3546 72.1736 60.7155C72.4855 61.1923 73.2474 64.5386 73.2608 65.1668C73.2652 65.3852 73.1271 65.4609 73.1226 65.501L73.1271 65.5055Z" fill="var(--fill-0, #E5B89D)"/>
<path id="Vector_53" d="M67.3174 48.3671C67.5936 48.5365 67.7317 48.835 67.8966 49.0934C68.6941 49.686 69.3045 50.8579 69.6387 51.8516C70.1332 52.8274 70.5208 53.9903 69.6387 54.9038C69.3535 54.9439 69.2644 55.082 69.0595 55.1934C68.5649 54.8191 67.9099 54.7701 67.3842 54.4716C67.2283 54.3825 66.0877 53.6205 66.0387 53.5537C65.9718 53.4601 66.0387 53.2239 65.9941 53.1838C65.9184 53.1126 65.5174 53.2017 65.2812 53.0903C64.408 52.6892 64.9783 50.0559 65.4283 50.546L65.7179 51.1253C65.7001 50.4034 65.7446 49.6682 65.7179 48.9464C65.7134 48.7994 65.7223 48.6568 65.7179 48.5097C65.8159 48.0107 67.0099 47.9928 67.3174 48.3627V48.3671Z" fill="var(--fill-0, #C28763)"/>
<path id="Vector_54" d="M94.7734 98.918C93.8601 98.4502 93.2719 98.058 92.216 97.9199C89.9437 97.6169 87.4219 97.7417 85.1185 97.4654C83.0779 97.4209 80.6586 96.5475 78.7027 96.4584C78.4621 96.4495 78.2749 96.4451 78.0744 96.5921C77.8873 96.7391 77.8294 96.6634 77.9274 96.4451C77.5086 96.3827 76.221 96.298 75.82 96.298H73.6413C73.3116 96.298 72.4606 96.0663 72.0329 96.0173C71.7344 95.9817 71.3735 95.8792 71.0972 96.0084C71.3022 95.4425 71.4358 94.8365 71.6096 94.2617C78.7249 96.0574 86.0408 96.9708 93.3922 97.1713C93.967 97.2783 94.5328 98.419 94.7734 98.9136V98.918Z" fill="var(--fill-0, #9E5E3A)"/>
<path id="Vector_55" d="M67.3168 88.1653L67.1163 88.8114C66.9826 88.9183 64.2871 87.5905 64.0198 87.3766C63.298 86.7884 63.1688 86.1691 63.396 85.2646C63.6099 84.008 63.944 83.4867 64.7014 82.5064C64.7415 82.4574 64.8128 82.4173 64.8485 82.3594C65.4945 82.3906 67.6821 82.6936 67.8693 83.3307C68.1188 84.1729 67.4816 87.1182 67.3168 88.1697V88.1653Z" fill="var(--fill-0, #E4B79D)"/>
<path id="Vector_56" d="M68.1906 76.2604C67.7628 76.6882 66.845 75.9352 66.4396 75.5832C65.4505 74.7232 64.9158 73.8231 65.1386 72.4864C65.3435 71.5551 65.5217 70.7397 66.2524 70.0312C67.8208 70.6506 68.5648 70.1649 68.4846 72.1299C68.4311 73.5157 68.1505 74.8524 68.1906 76.2649V76.2604Z" fill="var(--fill-0, #E4B79D)"/>
<path id="Vector_57" d="M63.8321 10.4565C64.3088 8.09939 64.5271 5.62643 65.1821 3.30942C65.2177 3.18911 65.5207 2.02615 65.7167 2.17765C65.8549 2.89058 66.5677 3.4431 66.7727 4.11146C66.9286 4.62388 66.3895 6.45966 66.1935 7.08347C65.8192 8.26871 65.2222 10.2515 63.8321 10.4565Z" fill="var(--fill-0, #E8BCA2)"/>
<path id="Vector_58" d="M70.6576 95.7261C70.319 96.6039 70.065 97.4906 69.6417 98.3416C68.9556 98.8362 67.3517 97.798 66.7368 97.3257C66.4338 96.234 66.5452 95.686 67.0264 94.7102L67.414 94.5898C68.3898 94.9597 69.4012 95.2226 70.4482 95.3741L70.6576 95.7305V95.7261Z" fill="var(--fill-0, #E1B49B)"/>
<path id="Vector_59" d="M68.188 76.257C68.2058 76.8942 68.4063 77.5046 68.335 78.1463C67.4929 78.0438 66.4191 78.026 65.8667 77.3442C64.7439 75.9629 64.784 74.1093 65.1404 72.4785C65.1315 74.1628 66.6642 75.7624 68.1924 76.257H68.188Z" fill="var(--fill-0, #CD9777)"/>
<path id="Vector_60" d="M63.4003 85.2578C63.0483 87.3877 65.6503 87.6862 67.0315 88.5239C67.2988 88.6843 67.125 88.2432 67.3211 88.163C67.0582 89.8473 67.3433 90.1993 65.2805 89.6958C63.4359 89.2457 63.0929 87.2941 63.2488 85.6098C63.2666 85.4138 63.3914 85.3068 63.4003 85.2578Z" fill="var(--fill-0, #D19B7B)"/>
<path id="Vector_61" d="M70.661 95.7215C69.458 95.3873 68.1348 95.3517 67.0298 94.7056C67.2704 94.2154 67.7427 93.4134 68.3041 93.2797C68.5313 93.2263 71.0665 94.0862 71.1823 94.2689C71.3739 94.5764 70.7635 95.4586 70.661 95.7215Z" fill="var(--fill-0, #D09A7C)"/>
<path id="Vector_62" d="M66.4502 39.2195C65.7686 41.385 65.3275 43.6174 65.2874 45.9032C65.1671 45.872 65.0468 45.7874 65.0245 45.6626C64.9844 45.4443 64.8507 44.5264 64.8507 44.3749V41.7593C64.8507 41.5143 65.5324 39.7498 65.4344 39.6562C65.0379 39.6384 64.4809 39.625 64.2715 39.2195C65.029 39.2329 65.8265 38.9344 66.4502 39.2195Z" fill="var(--fill-0, #AC6C48)"/>
<path id="Vector_63" d="M104.789 75.0977L104.21 74.9507C104.299 73.0748 104.103 71.2346 103.733 69.3988C103.622 68.8463 103.172 68.6324 103.921 68.4141C104.994 70.4726 105.351 72.8164 104.794 75.0977H104.789Z" fill="var(--fill-0, #A0613E)"/>
<path id="Vector_64" d="M86.0589 50.5463C84.8782 51.0855 83.7599 51.7672 82.5748 52.2886C82.9 51.2726 83.2564 50.2745 83.7599 49.3299C83.8312 49.1962 84.0005 49.1383 84.0272 49.0938C84.553 49.8913 85.7649 49.7131 86.0589 50.5463Z" fill="var(--fill-0, #AC704B)"/>
<path id="Vector_65" d="M73.1286 65.5085C73.1019 65.6912 73.24 65.9897 73.0351 66.0967C71.2172 66.266 69.3237 67.0591 68.045 65.3615C68.6153 65.1253 69.0474 65.357 69.5643 65.3704C70.7316 65.4016 72.0059 65.2189 73.1286 65.5085Z" fill="var(--fill-0, #D09A7B)"/>
<path id="Vector_66" d="M76.3237 48.8061C76.2167 48.9844 76.1499 49.225 76.0341 49.3854C74.938 50.9405 74.6261 52.7049 73.9177 54.4561C73.7484 54.7724 73.3474 54.6744 73.1291 54.7591C72.893 54.7947 72.5945 54.6076 72.4029 54.612C72.688 54.3402 73.5925 54.367 73.7841 54.0328C73.9489 53.7476 74.038 52.2282 74.1851 51.6757C74.3544 51.0385 74.9648 49.5012 75.4504 49.0913C75.74 48.8462 75.936 48.7839 76.3237 48.8017V48.8061Z" fill="var(--fill-0, #9C5E3C)"/>
<path id="Vector_67" d="M67.3166 48.3656L65.7171 48.5126C65.7171 48.5126 65.5745 48.3477 65.5656 48.1606C65.5344 47.314 65.5968 46.454 65.5745 45.6074L67.3166 48.3656Z" fill="var(--fill-0, #B67851)"/>
<path id="Vector_68" d="M69.6443 98.3362C69.5596 98.51 69.6799 98.7462 69.2834 98.7774C68.8868 98.8086 67.2428 98.207 66.9487 97.9085C66.7037 97.659 66.8017 97.5476 66.7393 97.3203C67.7774 97.347 68.5705 98.314 69.6443 98.3362Z" fill="var(--fill-0, #CB9779)"/>
<path id="Vector_69" d="M69.645 51.8505C69.1994 50.9638 68.4509 49.9434 67.9029 49.0924L68.1925 48.9453C68.7405 49.8276 69.6049 50.7187 69.645 51.8505Z" fill="var(--fill-0, #2B1D15)"/>
<path id="Vector_70" d="M66.4439 97.8985C66.2122 97.8762 66.1365 97.3326 66.1053 97.1499C65.9627 96.3434 65.9761 95.9246 66.2345 95.1448C66.288 94.9844 66.3904 94.5566 66.5909 94.5566C66.2434 95.6884 66.2167 96.7266 66.4439 97.894V97.8985Z" fill="var(--fill-0, #67483A)"/>
<path id="Vector_71" d="M66.7366 62.0232C66.8346 62.7985 66.692 63.6183 67.0306 64.4159C66.839 64.6253 66.6786 63.8367 66.6653 63.7654C66.4202 62.7896 66.4113 62.3975 66.594 61.4395C66.4782 61.6712 66.7277 61.9296 66.741 62.0187L66.7366 62.0232Z" fill="var(--fill-0, #724C38)"/>
<path id="Vector_72" d="M76.0317 47.4905C75.4926 47.5261 74.8822 47.6152 74.2896 47.6375C74.7307 47.3167 75.4837 47.5662 76.0317 47.4905Z" fill="var(--fill-0, #B67851)"/>
<path id="Vector_73" d="M72.8393 47.639C72.2913 47.639 71.5294 47.7637 71.0972 47.4919C71.6542 47.5142 72.3982 47.3538 72.8393 47.639Z" fill="var(--fill-0, #B67851)"/>
<path id="Vector_74" d="M51.9235 106.037C52.7343 106.046 53.4249 105.636 54.2447 105.743C54.1244 105.436 53.523 105.449 53.6655 104.95C53.7725 104.58 56.1962 104.126 56.6373 104.139C57.3056 104.157 57.7645 104.923 58.0942 104.143L58.3125 105.306C58.2858 105.333 57.4036 105.204 57.7333 105.596C57.9829 105.895 60.019 106.18 60.4913 106.18C60.3398 106.42 59.9388 106.322 59.6937 106.327C57.1274 106.358 54.4274 106.483 51.919 106.033L51.9235 106.037Z" fill="var(--fill-0, #B47650)"/>
<path id="Vector_75" d="M63.6867 104.581C62.8713 105.267 62.0426 106.038 60.9288 106.18C61.5926 105.307 62.5416 104.558 63.6867 104.581Z" fill="var(--fill-0, #B47650)"/>
<path id="Vector_76" d="M63.8344 92.6722C63.5269 93.3316 62.6938 94.3787 62.2393 94.9981L63.5448 92.3825L64.124 91.5137C64.0571 91.7988 63.9413 92.4449 63.8344 92.6766V92.6722Z" fill="var(--fill-0, #35251B)"/>
<path id="Vector_77" d="M59.7645 66.3765C59.5017 67.3924 59.0517 68.3816 58.8913 69.4242C58.6284 69.4599 58.7576 69.1079 58.7844 68.9564C58.8824 68.3326 59.1631 67.4726 59.3279 66.8132C59.9071 64.5051 60.5933 62.2059 60.9274 59.8398L61.0522 60.4726C60.5888 62.4242 60.268 64.4338 59.7645 66.372V66.3765Z" fill="var(--fill-0, #5C3C29)"/>
<path id="Vector_78" d="M55.2619 68.8467C55.0659 69.4839 54.7718 70.1122 54.5357 70.736L57.0085 60.8575C57.2758 60.8263 57.1332 61.1649 57.1109 61.3253C57.0753 61.5882 56.9906 61.8957 56.9327 62.1675C56.4872 64.2662 55.8857 66.8104 55.2619 68.8467Z" fill="var(--fill-0, #85583D)"/>
<path id="Vector_79" d="M63.9768 46.334C63.7941 46.6459 63.1526 46.7662 62.8184 46.8464C62.2704 46.9756 61.6377 47.0603 61.0719 47.0603C61.0362 46.8553 61.3303 46.8464 61.4729 46.8108C62.2838 46.6147 63.1526 46.481 63.9724 46.334H63.9768Z" fill="var(--fill-0, #83553B)"/>
<path id="Vector_80" d="M59.0409 46.4792L57.8067 46.7821L55.6993 46.4792C55.8552 46.0559 56.6394 46.4792 56.7864 46.4792H59.0364H59.0409Z" fill="var(--fill-0, #4D3425)"/>
<path id="Vector_81" d="M39.1397 72.1861L41.0288 73.055C40.2847 73.0327 39.6521 72.5916 38.9971 72.3287L39.1442 72.1816L39.1397 72.1861Z" fill="var(--fill-0, #644430)"/>
<path id="Vector_82" d="M50.0354 102.99C50.2314 103.622 49.1755 103.997 49.0195 103.498C48.8369 102.905 49.7101 102.954 50.0354 102.99Z" fill="var(--fill-0, #B47650)"/>
<path id="Vector_83" d="M74.7242 80.0368C74.4568 80.3308 73.8554 78.7134 73.8108 78.5574C73.196 76.4008 73.4232 73.7496 74.0024 71.6153C74.2742 71.5841 74.1182 71.9183 74.1049 72.0787C74.0514 72.6179 73.8776 73.1748 73.8509 73.714C73.7752 75.1532 73.7974 76.8509 74.1271 78.2411C74.2029 78.5664 74.791 79.9655 74.7286 80.0368H74.7242Z" fill="var(--fill-0, #1A100A)"/>
<path id="Vector_84" d="M75.3062 72.6249C75.5602 72.5938 75.4443 72.9547 75.4532 73.1329C75.5201 74.8885 75.5958 76.6574 76.0369 78.364C75.8409 78.5912 75.7428 77.8828 75.725 77.8026C75.529 77.0184 75.5022 76.2341 75.3062 75.4588V72.6249Z" fill="var(--fill-0, #64422D)"/>
<path id="Vector_85" d="M95.6417 73.7184C95.6595 74.0526 95.9358 74.6363 95.7843 75.0997H95.6417C95.7308 74.8724 95.4947 74.5561 95.4947 74.4447V71.1028C95.4947 70.9959 95.6996 70.1894 95.9269 70.1582C95.9358 70.5236 95.6373 71.2454 95.6373 71.5395C95.6373 72.2613 95.5972 73.001 95.6373 73.7184H95.6417Z" fill="var(--fill-0, #513323)"/>
<path id="Vector_86" d="M77.1979 76.5405L76.779 74.7092L76.7657 73.2031L77.1979 76.5405Z" fill="var(--fill-0, #74472F)"/>
<path id="Vector_87" d="M80.246 65.9449L80.099 66.0919C78.8203 64.1135 78.6198 61.5737 78.504 59.2656L79.4173 63.9442C79.6 64.5636 79.8851 65.4235 80.246 65.9449Z" fill="var(--fill-0, #472C1D)"/>
<path id="Vector_88" d="M98.6937 58.97L97.6289 55.3162L97.2413 53.1641L97.9853 55.539L98.6937 58.97Z" fill="var(--fill-0, #3E281D)"/>
<path id="Vector_89" d="M81.114 63.9066L80.4323 62.3382C80.2229 61.4158 79.813 60.5068 79.813 59.5488L81.1185 63.9066H81.114Z" fill="var(--fill-0, #3B251A)"/>
<path id="Vector_90" d="M96.3669 57.6608L95.8277 56.2394L95.6451 54.0293L96.3669 57.6608Z" fill="var(--fill-0, #5A3A28)"/>
<path id="Vector_91" d="M95.4924 91.3614L95.3409 89.8286C95.6037 88.8751 95.3854 87.8458 95.4879 86.9234C95.5102 86.7051 95.5191 86.4734 95.782 86.4199L95.4924 91.3569V91.3614Z" fill="var(--fill-0, #6B442E)"/>
<path id="Vector_92" d="M75.5958 91.0757H75.4532C75.5423 90.8484 75.3062 90.5321 75.3062 90.4207V87.3685C75.3062 87.1724 75.6047 86.6288 75.4532 86.2812H75.5958V91.0757Z" fill="var(--fill-0, #734A33)"/>
<path id="Vector_93" d="M74.0018 90.3419L73.6097 88.9249C73.4894 87.704 73.7344 86.4297 74.0775 85.2578C74.0107 86.9599 73.6542 88.6308 74.0018 90.3419Z" fill="var(--fill-0, #4D311F)"/>
<path id="Vector_94" d="M100.29 89.6943C100.232 90.1577 99.822 91.3118 99.6349 91.8019C99.5948 91.9044 99.568 92.2475 99.4166 92.0158C99.9423 90.1889 100.392 88.3353 100 86.4282C100.152 86.3703 100.29 86.905 100.29 86.9362C100.29 87.7739 100.388 88.9101 100.29 89.6943Z" fill="var(--fill-0, #4A2F21)"/>
<path id="Vector_95" d="M78.069 96.5963C77.6814 96.8814 76.9685 98.6459 76.8037 99.1806L76.1844 102.26C75.868 100.295 76.8259 98.0622 77.9264 96.4492C77.9933 96.4581 78.0557 96.525 78.0735 96.5963H78.069Z" fill="var(--fill-0, #372518)"/>
<path id="Vector_96" d="M92.4459 104.438C93.0652 102.915 93.5508 101.462 93.533 99.791C93.9652 100.312 93.6711 101.346 93.5374 101.974C93.3681 102.781 93.0518 103.859 92.4459 104.438Z" fill="var(--fill-0, #4F3223)"/>
<path id="Vector_97" d="M90.7047 104.872L90.5933 104.4L91.7205 100.951C91.6537 102.306 91.0433 103.576 90.7047 104.872Z" fill="var(--fill-0, #583928)"/>
<path id="Vector_98" d="M77.7794 102.114C77.8952 101.281 78.0511 100.452 78.2873 99.6454C78.3853 99.3112 78.51 98.6829 78.7952 98.4824C78.5546 99.5162 78.3363 100.581 78.069 101.606C78.0155 101.806 78.069 102.06 77.7794 102.114Z" fill="var(--fill-0, #623F2B)"/>
<path id="Vector_99" d="M62.6701 66.2332C62.3849 66.2332 62.5364 65.6405 62.5631 65.4712C62.7324 64.3216 63.129 63.0696 63.3518 61.9021C63.7037 60.053 63.9577 58.1771 64.3186 56.3324C64.3542 56.1408 64.3364 55.6284 64.5592 55.6328C64.2785 59.2287 63.3829 62.7175 62.6701 66.2376V66.2332Z" fill="var(--fill-0, #482F20)"/>
<path id="Vector_100" d="M71.963 50.8362L69.3521 47.9311C69.6239 47.8687 69.6996 48.0826 69.86 48.2207C70.6576 48.8935 71.5665 49.8649 71.963 50.8362Z" fill="var(--fill-0, #332015)"/>
</g>
</svg>
